<!-- Generator: Adobe Illustrator 22.0.1, SVG Export Plug-In  -->
<svg version="1.1"
	 xmlns="http://www.w3.org/2000/svg" xmlns:xlink="http://www.w3.org/1999/xlink" xmlns:a="http://ns.adobe.com/AdobeSVGViewerExtensions/3.0/"
	 x="0px" y="0px" width="191.375px" height="143px" viewBox="0 0 191.375 143" style="enable-background:new 0 0 191.375 143;"
	 xml:space="preserve">
<style type="text/css">
	.st0{opacity:0.6;}
	.st1{fill:#FFFFFF;}
	.st2{font-family:'Code-Light';}
	.st3{font-size:29px;}
	.st4{letter-spacing:-1;}
	.st5{letter-spacing:-2;}
	.st6{font-family:'FootlightMTLight';}
</style>
<defs>
</defs>
<circle class="st0" cx="95.688" cy="71.5" r="71.5"/>
<g>
	<path class="st1" d="M49.81,53.65h12.734v-9.775h0.464v20.276h-0.464V54.085H49.81v10.065h-0.435V43.875h0.435V53.65z"/>
	<path class="st1" d="M67.993,46.631c1.856-1.915,4.467-3.075,7.31-3.075c2.872,0,5.453,1.16,7.339,3.075
		c1.856,1.885,3.046,4.496,3.046,7.368s-1.189,5.482-3.046,7.368c-1.886,1.915-4.467,3.075-7.339,3.075
		c-2.843,0-5.453-1.16-7.31-3.075c-1.856-1.885-3.046-4.496-3.046-7.368S66.137,48.516,67.993,46.631z M82.322,46.979
		c-1.798-1.827-4.293-2.958-7.02-2.958s-5.192,1.131-6.99,2.958c-1.77,1.799-2.901,4.264-2.901,7.02c0,2.755,1.132,5.221,2.901,7.02
		c1.798,1.828,4.264,2.959,6.99,2.959s5.222-1.131,7.02-2.959c1.77-1.798,2.872-4.264,2.872-7.02
		C85.194,51.243,84.092,48.777,82.322,46.979z"/>
	<path class="st1" d="M100.359,48.11c-0.174-0.841-0.522-1.566-1.103-2.205c-1.247-1.334-3.248-1.885-5.076-1.856
		c-1.914,0.029-4.09,0.726-5.308,2.321c-0.726,0.899-0.986,1.973-0.899,3.104c0.521,7.107,11.922,1.538,13.314,8.035
		c0.928,4.293-3.162,6.846-7.021,6.846c-2.958,0-6.555-1.683-6.903-4.96l-0.029-0.203l0.465-0.058l0.028,0.203
		c0.319,3.045,3.713,4.583,6.469,4.583c3.539,0,7.368-2.292,6.526-6.324c-1.305-6.033-12.763-0.522-13.285-8.093
		c-0.116-1.218,0.203-2.408,0.957-3.394c2.959-3.829,11.313-3.335,12.3,1.915l0.028,0.232l-0.435,0.087L100.359,48.11z"/>
	<path class="st1" d="M108.014,64.238V44.31h-7.02v-0.464h14.475v0.464h-7.02v19.928H108.014z"/>
	<path class="st1" d="M126.75,57.334h-10.269l-2.756,6.816h-0.493l8.151-20.595h0.493l8.15,20.595h-0.493L126.75,57.334z
		 M116.685,56.899h9.892l-4.961-12.734L116.685,56.899z"/>
	<path class="st1" d="M131.996,63.687h10.906v0.464c-3.8,0-7.571,0-11.371,0V43.875h0.465V63.687z"/>
</g>
<g>
	<path class="st1" d="M0.906,76.135h11.13c2.492,0,4.359,0.595,5.601,1.784s1.862,2.979,1.862,5.367c0,3.04-1.008,5.626-3.023,7.76
		s-4.731,3.2-8.149,3.2h-7.42v-0.68c0.85-0.009,1.421-0.171,1.714-0.485c0.292-0.314,0.438-0.898,0.438-1.752V79.052
		c0-0.916-0.16-1.513-0.481-1.792c-0.32-0.278-0.878-0.427-1.671-0.446V76.135z M5.679,77.862v14.134
		c1.51,0.877,2.982,1.316,4.418,1.316c2.02,0,3.648-0.759,4.885-2.278c1.237-1.519,1.855-3.49,1.855-5.914
		c0-2.434-0.541-4.433-1.622-5.999c-1.08-1.565-2.891-2.349-5.43-2.349C8.133,76.772,6.764,77.136,5.679,77.862z"/>
	<path class="st1" d="M31.847,75.725c1.586,0,2.987,0.312,4.205,0.935s2.285,1.595,3.2,2.917c0.916,1.322,1.374,2.908,1.374,4.758
		c0,2.011-0.569,3.849-1.706,5.516c-1.138,1.666-2.464,2.884-3.979,3.653c-1.515,0.769-3.104,1.154-4.765,1.154
		c-2.379,0-4.399-0.819-6.061-2.457c-1.662-1.638-2.492-3.67-2.492-6.096c0-2.804,1.038-5.234,3.115-7.292
		C26.814,76.753,29.185,75.725,31.847,75.725z M30.076,77.042c-1.746,0-3.192,0.611-4.34,1.833c-1.146,1.223-1.721,2.839-1.721,4.85
		c0,2.955,0.861,5.305,2.585,7.052c1.723,1.747,3.608,2.62,5.656,2.62c1.634,0,3.038-0.614,4.213-1.841
		c1.176-1.227,1.763-2.804,1.763-4.729c0-1.803-0.392-3.495-1.175-5.076c-0.784-1.582-1.851-2.762-3.2-3.54
		C32.507,77.431,31.247,77.042,30.076,77.042z"/>
	<path class="st1" d="M42.622,76.135h4.646l10.307,13.844v-4.208c0-2.702-0.206-4.846-0.619-6.433
		c-0.413-1.587-1.07-2.428-1.972-2.522v-0.68h6.188v0.68c-1.728,0.161-2.591,2.997-2.591,8.51v9.572h-0.656L45.695,78.387v5.268
		c0,3.333,0.205,5.789,0.615,7.37c0.411,1.582,1.079,2.429,2.004,2.542v0.68h-6.159v-0.68c1.728-0.264,2.591-3.517,2.591-9.756
		v-4.885c0-0.84-0.163-1.397-0.488-1.671c-0.326-0.274-0.871-0.42-1.636-0.439V76.135z M47.691,73.112
		c0.745-1.308,1.485-1.961,2.221-1.961c0.396,0,1.085,0.208,2.065,0.623c0.773,0.312,1.288,0.467,1.543,0.467
		c0.519,0,1.046-0.335,1.584-1.005l0.531,0.333c-0.812,1.279-1.593,1.919-2.339,1.919c-0.283,0-0.864-0.161-1.743-0.481
		c-0.936-0.359-1.56-0.538-1.871-0.538c-0.463,0-0.959,0.316-1.488,0.949L47.691,73.112z"/>
	<path class="st1" d="M70.143,75.385h0.837l5.005,14.476c0.368,1.075,0.771,1.955,1.211,2.638c0.438,0.684,0.975,1.04,1.607,1.068
		v0.68h-5.092v-0.68h0.337c0.165,0,0.247-0.156,0.247-0.467c0-0.094-0.019-0.198-0.057-0.312l-1.692-4.928h-6.209
		c-0.642,1.832-0.963,3.195-0.963,4.092c0,0.472,0.153,0.859,0.461,1.161c0.307,0.302,0.71,0.453,1.21,0.453h0.751v0.68h-6.343
		v-0.68c1.057-0.057,2.02-1.185,2.889-3.384L70.143,75.385z M69.654,79.444l-2.966,7.538h5.556L69.654,79.444z"/>
	<path class="st1" d="M103.157,90.791c-2.99,2.577-5.716,3.866-8.178,3.866c-2.009,0-3.812-0.767-5.411-2.301
		c-1.599-1.534-2.398-3.646-2.398-6.336c0-1.878,0.415-3.559,1.245-5.041s2.007-2.728,3.529-3.738
		c1.523-1.01,3.355-1.515,5.497-1.515c1.867,0,3.631,0.292,5.291,0.878v4.276h-1.006c-0.122-1.34-0.712-2.386-1.768-3.137
		c-1.057-0.75-2.315-1.125-3.776-1.125c-2.046,0-3.654,0.75-4.823,2.251s-1.754,3.342-1.754,5.522c0,2.36,0.665,4.319,1.994,5.876
		c1.33,1.558,3.037,2.336,5.121,2.336s4.229-0.892,6.437-2.676V90.791z"/>
	<path class="st1" d="M104.842,76.135h6.925v0.68c-0.854,0.019-1.426,0.178-1.717,0.479c-0.29,0.3-0.436,0.886-0.436,1.759v14.514
		h1.845c2.865,0,4.568-1.501,5.107-4.503h1.02l-1.218,5.848h-0.651c-0.009-0.444-0.213-0.666-0.609-0.666h-10.266v-0.68
		c0.841-0.009,1.409-0.171,1.707-0.485c0.297-0.314,0.445-0.898,0.445-1.752V79.052c0-0.91-0.16-1.506-0.481-1.787
		c-0.32-0.281-0.878-0.431-1.671-0.45V76.135z"/>
	<path class="st1" d="M126.685,75.385h0.836l5.006,14.476c0.368,1.075,0.771,1.955,1.21,2.638c0.439,0.684,0.975,1.04,1.607,1.068
		v0.68h-5.092v-0.68h0.338c0.164,0,0.247-0.156,0.247-0.467c0-0.094-0.02-0.198-0.057-0.312l-1.693-4.928h-6.209
		c-0.642,1.832-0.962,3.195-0.962,4.092c0,0.472,0.153,0.859,0.46,1.161s0.71,0.453,1.211,0.453h0.75v0.68h-6.343v-0.68
		c1.058-0.057,2.021-1.185,2.889-3.384L126.685,75.385z M126.195,79.444l-2.966,7.538h5.556L126.195,79.444z"/>
	<path class="st1" d="M136.179,76.135h9.006c1.34,0,2.344,0.26,3.009,0.779c0.666,0.519,0.998,1.298,0.998,2.336
		c0,1.161-0.375,2.244-1.125,3.25c-0.751,1.005-1.877,1.938-3.378,2.797l3.158,4.885c1.416,2.19,2.724,3.318,3.922,3.384v0.68
		h-3.398c-0.68,0-1.283-0.406-1.812-1.218l-5.607-8.722v7.023c0,1.446,0.728,2.192,2.181,2.237v0.68h-6.952v-0.68
		c0.85-0.009,1.421-0.171,1.713-0.485c0.293-0.314,0.439-0.898,0.439-1.752V79.052c0-0.916-0.161-1.513-0.481-1.792
		c-0.321-0.278-0.878-0.427-1.671-0.446V76.135z M140.95,77.521v5.895c1.104,0.801,2.054,1.201,2.847,1.201
		c0.83,0,1.453-0.28,1.869-0.841c0.415-0.561,0.623-1.397,0.623-2.509c0-1.356-0.307-2.438-0.921-3.244
		c-0.613-0.806-1.359-1.208-2.237-1.208C142.357,76.815,141.63,77.051,140.95,77.521z"/>
	<path class="st1" d="M159.047,76.815c-0.85,0.019-1.421,0.182-1.713,0.489c-0.293,0.307-0.439,0.89-0.439,1.749v12.277
		c0,1.446,0.718,2.192,2.152,2.237v0.68h-6.924v-0.68c0.85-0.009,1.421-0.171,1.713-0.485c0.293-0.314,0.439-0.898,0.439-1.752
		V79.052c0-0.916-0.161-1.513-0.481-1.792c-0.321-0.278-0.878-0.427-1.671-0.446v-0.68h6.924V76.815z"/>
	<path class="st1" d="M160.166,75.498h0.623c0.122,0.425,0.307,0.637,0.552,0.637h12.376c0.321,0,0.481-0.212,0.481-0.637h0.68
		v5.381h-1.005c-0.028-2.709-1.464-4.064-4.305-4.064h-0.765v14.514c0,1.456,0.717,2.202,2.152,2.237v0.68h-6.925v-0.68
		c0.85-0.009,1.421-0.171,1.714-0.485c0.292-0.314,0.438-0.898,0.438-1.752V76.815h-0.977c-2.615,0-3.965,1.354-4.05,4.064h-0.991
		V75.498z"/>
	<path class="st1" d="M182.674,75.385h0.836l5.006,14.476c0.368,1.075,0.771,1.955,1.21,2.638c0.439,0.684,0.975,1.04,1.607,1.068
		v0.68h-5.092v-0.68h0.338c0.164,0,0.247-0.156,0.247-0.467c0-0.094-0.02-0.198-0.057-0.312l-1.693-4.928h-6.209
		c-0.642,1.832-0.962,3.195-0.962,4.092c0,0.472,0.153,0.859,0.46,1.161s0.71,0.453,1.211,0.453h0.75v0.68h-6.343v-0.68
		c1.058-0.057,2.021-1.185,2.889-3.384L182.674,75.385z M182.185,79.444l-2.966,7.538h5.556L182.185,79.444z"/>
</g>
</svg>