<!-- Generator: Adobe Illustrator 22.0.1, SVG Export Plug-In  -->
<svg version="1.1"
	 xmlns="http://www.w3.org/2000/svg" xmlns:xlink="http://www.w3.org/1999/xlink" xmlns:a="http://ns.adobe.com/AdobeSVGViewerExtensions/3.0/"
	 x="0px" y="0px" width="297px" height="526px" viewBox="0 0 297 526" style="enable-background:new 0 0 297 526;"
	 xml:space="preserve">
<style type="text/css">
	.st0{fill-rule:evenodd;clip-rule:evenodd;fill:#3F3F41;}
	.st1{opacity:0.9;}
	.st2{fill:#0071BC;}
	.st3{fill:#FFFFFF;}
	.st4{fill:#292849;}
</style>
<defs>
</defs>
<g>
	<g>
		<path class="st0" d="M101.98,194h37.556h2.721l-1.815,2.143l-37.556,41.472l-2.098-0.62v-41.757V194H101.98z M140.564,315.648
			h5.936c0.29,0,0.497,0.205,0.497,0.496l0,0c0,0.288-0.207,0.535-0.497,0.535h-5.936c-0.207,0.742-0.905,1.32-1.774,1.32
			c-1.028,0-1.852-0.825-1.852-1.855c0-1.031,0.824-1.856,1.852-1.856C139.659,314.288,140.358,314.865,140.564,315.648
			L140.564,315.648z M73.782,322.12h18.346v-46.829H73.33l75.151-78.529l75.19,78.529h-18.796v46.829h14.592v22.179H73.782V322.12z
			 M132.444,290.997h32.112v50.744h-32.112V290.997z"/>
	</g>
</g>
<g class="st1">
	<g>
		<g>
			<rect x="8.5" y="10" class="st2" width="280" height="504"/>
		</g>
	</g>
</g>
<g>
	<g>
		<circle class="st3" cx="148.5" cy="129" r="81"/>
	</g>
</g>
<g>
	<g>
		<rect x="36" y="253.5" class="st3" width="225" height="1"/>
	</g>
</g>
<g>
	<g>
		<path class="st3" d="M90.602,358.47h3.875v1.868h-3.875V358.47z"/>
	</g>
	<g>
		<path class="st3" d="M103.875,352.223h2.338l3.648,11.206h-2.168l-0.851-2.629h-3.582l-0.849,2.629h-2.168L103.875,352.223z
			 M105.049,355.255l-1.285,3.911h2.55L105.049,355.255z"/>
	</g>
	<g>
		<path class="st3" d="M111.403,352.223h2.19v9.272h4.629v1.934h-6.819V352.223z"/>
	</g>
	<g>
		<path class="st3" d="M123.678,352.003c1.055,0,1.904,0.176,2.549,0.527c0.845,0.459,1.489,1.118,1.934,1.978
			s0.667,1.987,0.667,3.384c0,1.895-0.447,3.328-1.34,4.299c-0.894,0.973-2.075,1.458-3.545,1.458c-1.484,0-2.685-0.494-3.6-1.483
			c-0.916-0.988-1.374-2.433-1.374-4.332c0-1.143,0.186-2.168,0.557-3.076c0.2-0.503,0.506-0.972,0.919-1.406
			c0.412-0.435,0.894-0.768,1.442-1C122.437,352.119,123.034,352.003,123.678,352.003z M123.898,353.922
			c-0.757,0-1.382,0.303-1.875,0.908s-0.74,1.606-0.74,3.003c0,1.372,0.25,2.358,0.75,2.959s1.142,0.9,1.923,0.9
			c0.742,0,1.36-0.299,1.853-0.896c0.493-0.599,0.74-1.578,0.74-2.941c0-1.523-0.3-2.595-0.901-3.215
			C125.185,354.161,124.601,353.922,123.898,353.922z"/>
	</g>
	<g>
		<path class="st3" d="M133.939,352.223h2.19v7.786c0,1.235-0.408,2.185-1.223,2.849c-0.635,0.527-1.35,0.791-2.146,0.791
			c-1.152,0-2.222-0.608-3.208-1.823l1.428-1.268c0.376,0.474,0.685,0.787,0.926,0.941c0.242,0.153,0.485,0.23,0.729,0.23
			c0.361,0,0.652-0.129,0.872-0.389c0.288-0.346,0.432-0.791,0.432-1.332V352.223z"/>
	</g>
	<g>
		<path class="st3" d="M140.957,352.223h2.338l3.648,11.206h-2.168l-0.851-2.629h-3.582l-0.849,2.629h-2.168L140.957,352.223z
			 M142.131,355.255l-1.285,3.911h2.55L142.131,355.255z"/>
	</g>
	<g>
		<path class="st3" d="M148.478,352.223h3.5l1.865,6.943l1.879-6.943h3.5v11.206h-2.102v-9.976l-2.701,9.976h-1.162l-2.699-9.976
			v9.976h-2.081V352.223z"/>
	</g>
	<g>
		<path class="st3" d="M161.955,352.223h2.197v11.206h-2.197V352.223z"/>
	</g>
	<g>
		<path class="st3" d="M166.972,352.223h7.515v1.948h-5.311v2.469h3.238v1.662h-3.238v3.193h5.311v1.934h-7.515V352.223z"/>
	</g>
	<g>
		<path class="st3" d="M176.464,352.223h2.33l4.599,7.522v-7.522h2.183v11.206h-2.183l-4.725-7.814v7.814h-2.204V352.223z"/>
	</g>
	<g>
		<path class="st3" d="M187.392,352.223h8.496v1.927h-3.157v9.279h-2.197v-9.279h-3.142V352.223z"/>
	</g>
	<g>
		<path class="st3" d="M201.352,352.003c1.055,0,1.904,0.176,2.549,0.527c0.845,0.459,1.489,1.118,1.934,1.978
			s0.666,1.987,0.666,3.384c0,1.895-0.446,3.328-1.34,4.299c-0.894,0.973-2.075,1.458-3.545,1.458c-1.484,0-2.685-0.494-3.6-1.483
			c-0.916-0.988-1.373-2.433-1.373-4.332c0-1.143,0.186-2.168,0.557-3.076c0.199-0.503,0.506-0.972,0.919-1.406
			c0.412-0.435,0.894-0.768,1.442-1C200.11,352.119,200.707,352.003,201.352,352.003z M201.571,353.922
			c-0.757,0-1.382,0.303-1.875,0.908s-0.739,1.606-0.739,3.003c0,1.372,0.25,2.358,0.75,2.959s1.142,0.9,1.923,0.9
			c0.742,0,1.36-0.299,1.853-0.896c0.494-0.599,0.74-1.578,0.74-2.941c0-1.523-0.301-2.595-0.9-3.215
			C202.857,354.161,202.274,353.922,201.571,353.922z"/>
	</g>
</g>
<g>
	<g>
		<path class="st3" d="M105.621,392.47h3.875v1.868h-3.875V392.47z"/>
	</g>
	<g>
		<path class="st3" d="M124.766,394.221c-0.156,0.63-0.354,1.131-0.593,1.501c-0.386,0.602-0.885,1.072-1.498,1.414
			s-1.322,0.513-2.127,0.513c-0.859,0-1.68-0.216-2.461-0.648c-0.781-0.432-1.375-1.077-1.78-1.937s-0.608-1.873-0.608-3.04
			c0-1.216,0.206-2.29,0.619-3.223s1.012-1.632,1.798-2.099c0.786-0.466,1.614-0.699,2.483-0.699c0.64,0,1.266,0.142,1.879,0.425
			c0.612,0.283,1.119,0.684,1.52,1.201c0.278,0.361,0.5,0.84,0.667,1.436l-2.051,0.586c-0.146-0.605-0.407-1.063-0.78-1.373
			c-0.374-0.311-0.822-0.466-1.344-0.466c-0.781,0-1.389,0.379-1.824,1.136s-0.652,1.746-0.652,2.966c0,0.772,0.1,1.448,0.3,2.029
			s0.476,1.01,0.828,1.285c0.352,0.276,0.732,0.414,1.143,0.414c0.615,0,1.165-0.222,1.648-0.666
			c0.342-0.309,0.61-0.752,0.806-1.334L124.766,394.221z"/>
	</g>
	<g>
		<path class="st3" d="M130.713,386.003c1.055,0,1.904,0.176,2.549,0.527c0.845,0.459,1.489,1.118,1.934,1.978
			s0.667,1.987,0.667,3.384c0,1.895-0.447,3.328-1.34,4.299c-0.894,0.973-2.075,1.458-3.545,1.458c-1.484,0-2.685-0.494-3.6-1.483
			c-0.916-0.988-1.374-2.433-1.374-4.332c0-1.143,0.186-2.168,0.557-3.076c0.2-0.503,0.506-0.972,0.919-1.406
			c0.412-0.435,0.894-0.768,1.442-1C129.472,386.119,130.069,386.003,130.713,386.003z M130.933,387.922
			c-0.757,0-1.382,0.303-1.875,0.908s-0.74,1.606-0.74,3.003c0,1.372,0.25,2.358,0.75,2.959s1.142,0.9,1.923,0.9
			c0.742,0,1.36-0.299,1.853-0.896c0.493-0.599,0.74-1.578,0.74-2.941c0-1.523-0.3-2.595-0.901-3.215
			C132.22,388.161,131.636,387.922,130.933,387.922z"/>
	</g>
	<g>
		<path class="st3" d="M137.833,386.223h3.501l1.864,6.943l1.879-6.943h3.5v11.206h-2.102v-9.976l-2.701,9.976h-1.162l-2.7-9.976
			v9.976h-2.08V386.223z"/>
	</g>
	<g>
		<path class="st3" d="M151.162,386.223h7.516v1.948h-5.311v2.469h3.237v1.662h-3.237v3.193h5.311v1.934h-7.516V386.223z"/>
	</g>
	<g>
		<path class="st3" d="M160.691,386.223h4.072c0.967,0,1.831,0.235,2.593,0.707c0.762,0.471,1.341,1.138,1.739,1.999
			c0.398,0.862,0.598,1.796,0.598,2.802c0,1.001-0.172,1.903-0.518,2.706c-0.344,0.804-0.784,1.435-1.321,1.894
			c-0.386,0.327-0.886,0.592-1.501,0.795c-0.615,0.202-1.266,0.304-1.949,0.304h-3.713V386.223z M162.926,388.112v7.354h1.523
			c0.541,0,1.023-0.146,1.445-0.436c0.423-0.291,0.749-0.673,0.979-1.146c0.332-0.674,0.498-1.408,0.498-2.205
			c0-1.084-0.314-1.949-0.945-2.596c-0.629-0.647-1.438-0.971-2.424-0.971H162.926z"/>
	</g>
	<g>
		<path class="st3" d="M175.859,386.003c1.055,0,1.904,0.176,2.549,0.527c0.846,0.459,1.49,1.118,1.934,1.978
			c0.445,0.859,0.667,1.987,0.667,3.384c0,1.895-0.446,3.328-1.341,4.299c-0.893,0.973-2.074,1.458-3.545,1.458
			c-1.484,0-2.684-0.494-3.6-1.483c-0.916-0.988-1.373-2.433-1.373-4.332c0-1.143,0.186-2.168,0.557-3.076
			c0.2-0.503,0.506-0.972,0.92-1.406c0.412-0.435,0.893-0.768,1.441-1C174.619,386.119,175.215,386.003,175.859,386.003z
			 M176.08,387.922c-0.758,0-1.383,0.303-1.875,0.908c-0.494,0.605-0.74,1.606-0.74,3.003c0,1.372,0.25,2.358,0.75,2.959
			c0.501,0.601,1.143,0.9,1.924,0.9c0.742,0,1.359-0.299,1.853-0.896c0.493-0.599,0.739-1.578,0.739-2.941
			c0-1.523-0.3-2.595-0.9-3.215C177.366,388.161,176.783,387.922,176.08,387.922z"/>
	</g>
	<g>
		<path class="st3" d="M183.06,386.223h3.024c1.627,0,2.75,0.122,3.373,0.366s1.107,0.647,1.454,1.209s0.521,1.206,0.521,1.934
			c0,0.669-0.156,1.222-0.469,1.658c-0.312,0.438-0.855,0.812-1.627,1.125l2.016,4.914h-2.184l-1.879-4.504h-2.018v4.504h-2.212
			V386.223z M185.271,388.179v3.018h1.766c0.645,0,1.193-0.184,1.647-0.55c0.298-0.244,0.446-0.583,0.446-1.019
			c0-0.414-0.166-0.76-0.498-1.036c-0.332-0.275-0.863-0.413-1.596-0.413H185.271z"/>
	</g>
</g>
<g>
	<g>
		<rect x="41.5" y="447" class="st3" width="215" height="42"/>
	</g>
</g>
<g>
	<g>
		<g>
			<polygon class="st2" points="1,58.5 0,58.5 0,0 50.25,0 50.25,1 1,1 			"/>
		</g>
	</g>
	<g>
		<g>
			<polygon class="st2" points="297,58.5 296,58.5 296,1 246.75,1 246.75,0 297,0 			"/>
		</g>
	</g>
</g>
<g>
	<g>
		<g>
			<polygon class="st2" points="297,526 246.75,526 246.75,525 296,525 296,467.5 297,467.5 			"/>
		</g>
	</g>
	<g>
		<g>
			<polygon class="st2" points="50.25,526 0,526 0,467.5 1,467.5 1,525 50.25,525 			"/>
		</g>
	</g>
</g>
<g>
	<path class="st3" d="M45.724,282.016c0.844,0,1.523,0.141,2.039,0.422c0.676,0.367,1.191,0.895,1.547,1.582s0.533,1.59,0.533,2.707
		c0,1.516-0.357,2.662-1.072,3.439s-1.66,1.166-2.836,1.166c-1.188,0-2.147-0.396-2.88-1.188s-1.099-1.945-1.099-3.465
		c0-0.914,0.148-1.734,0.445-2.461c0.16-0.402,0.405-0.777,0.735-1.125s0.715-0.615,1.154-0.801S45.208,282.016,45.724,282.016z
		 M45.899,283.551c-0.605,0-1.105,0.242-1.5,0.727s-0.592,1.285-0.592,2.402c0,1.098,0.2,1.887,0.601,2.367s0.913,0.721,1.538,0.721
		c0.594,0,1.088-0.24,1.482-0.719s0.592-1.262,0.592-2.352c0-1.219-0.24-2.076-0.721-2.572
		C46.929,283.742,46.462,283.551,45.899,283.551z"/>
	<path class="st3" d="M51.46,282.191h3.82c0.906,0,1.58,0.139,2.021,0.416c0.633,0.398,0.949,0.973,0.949,1.723
		c0,0.562-0.189,1.037-0.568,1.424c-0.254,0.258-0.625,0.473-1.113,0.645c0.418,0.125,0.736,0.27,0.955,0.434
		c0.305,0.227,0.541,0.506,0.709,0.838s0.252,0.672,0.252,1.02c0,0.406-0.105,0.799-0.316,1.18s-0.547,0.691-1.008,0.93
		s-1.047,0.357-1.758,0.357H51.46V282.191z M53.212,283.551v2.156h1.881c0.402,0,0.752-0.125,1.049-0.375
		c0.191-0.16,0.287-0.4,0.287-0.721c0-0.316-0.111-0.572-0.334-0.768s-0.572-0.293-1.049-0.293H53.212z M53.212,287.09v2.689h1.412
		c0.73,0,1.25-0.127,1.559-0.379s0.463-0.582,0.463-0.992c0-0.379-0.141-0.693-0.422-0.943s-0.691-0.375-1.23-0.375H53.212z"/>
	<path class="st3" d="M59.446,282.191h6.797v1.541h-2.525v7.424H61.96v-7.424h-2.514V282.191z"/>
	<path class="st3" d="M67.714,282.191h6.012v1.559h-4.248v1.975h2.59v1.33h-2.59v2.555h4.248v1.547h-6.012V282.191z M70.819,279.713
		h1.91l-2.297,1.846H69.22L70.819,279.713z"/>
	<path class="st3" d="M75.308,282.191h1.864l3.679,6.018v-6.018h1.746v8.965h-1.746l-3.779-6.252v6.252h-1.764V282.191z"/>
	<path class="st3" d="M88.386,282.191h1.77v5.473c0,0.684,0.158,1.195,0.475,1.535s0.746,0.51,1.289,0.51
		c0.348,0,0.656-0.068,0.926-0.205s0.485-0.359,0.647-0.668s0.243-0.699,0.243-1.172v-5.473h1.775v5.73
		c0,1.094-0.299,1.936-0.896,2.525s-1.473,0.885-2.625,0.885c-0.664,0-1.283-0.105-1.857-0.316
		c-0.305-0.113-0.559-0.262-0.762-0.445c-0.281-0.258-0.516-0.588-0.703-0.988s-0.281-0.938-0.281-1.613V282.191z"/>
	<path class="st3" d="M97.544,282.191h1.864l3.679,6.018v-6.018h1.746v8.965h-1.746l-3.779-6.252v6.252h-1.764V282.191z"/>
	<path class="st3" d="M110.751,283.082c0.566-0.125,1.031-0.254,1.395-0.385s0.742-0.299,1.137-0.506h1.277v7.67h1.775v1.295h-5.584
		v-1.295h2.25v-6.07c-0.656,0.25-1.406,0.41-2.25,0.48V283.082z"/>
	<path class="st3" d="M120.771,282.016c1.062,0,1.895,0.352,2.496,1.057s0.902,1.902,0.902,3.59c0,1.691-0.295,2.893-0.885,3.604
		s-1.379,1.066-2.367,1.066c-0.652,0-1.17-0.102-1.553-0.305c-0.582-0.309-1.012-0.75-1.289-1.324
		c-0.355-0.734-0.533-1.723-0.533-2.965c0-1.711,0.296-2.926,0.888-3.645S119.802,282.016,120.771,282.016z M120.87,283.469
		c-0.293,0-0.569,0.105-0.829,0.316s-0.451,0.527-0.574,0.951s-0.185,1.221-0.185,2.389c0,1.031,0.156,1.75,0.469,2.156
		s0.684,0.609,1.113,0.609c0.273,0,0.545-0.104,0.814-0.309s0.465-0.508,0.586-0.908s0.182-1.129,0.182-2.188
		c0-1.188-0.156-1.988-0.469-2.4S121.296,283.469,120.87,283.469z"/>
	<path class="st3" d="M133.093,282.133h0.954l-6.667,11.525h-0.996l5.806-10c-0.736,0.356-1.386,0.534-1.949,0.534
		c-0.219,0-0.45-0.031-0.693-0.094c0.051,0.223,0.076,0.45,0.076,0.681c0,0.902-0.247,1.676-0.741,2.318s-1.136,0.965-1.925,0.965
		c-0.613,0-1.118-0.203-1.515-0.607s-0.595-0.947-0.595-1.631c0-0.594,0.121-1.146,0.363-1.656s0.564-0.891,0.967-1.143
		s0.842-0.377,1.318-0.377c0.457,0,0.912,0.143,1.365,0.428s0.916,0.428,1.389,0.428c0.309,0,0.673-0.061,1.093-0.182
		s0.734-0.252,0.943-0.393S132.765,282.523,133.093,282.133z M127.386,283.662c-0.367,0-0.637,0.209-0.809,0.627
		c-0.223,0.555-0.334,1.129-0.334,1.723c0,0.324,0.074,0.572,0.223,0.744s0.33,0.258,0.545,0.258c0.191,0,0.383-0.078,0.574-0.234
		s0.345-0.416,0.46-0.779s0.173-0.771,0.173-1.225c0-0.383-0.078-0.664-0.234-0.844S127.628,283.662,127.386,283.662z
		 M133.474,287.822c0.648,0,1.169,0.201,1.562,0.605s0.589,0.953,0.589,1.645c0,0.551-0.117,1.084-0.352,1.6
		s-0.559,0.902-0.973,1.162s-0.875,0.391-1.383,0.391c-0.617,0-1.119-0.203-1.506-0.607s-0.58-0.955-0.58-1.654
		c0-0.535,0.118-1.066,0.354-1.594s0.558-0.918,0.964-1.17S132.997,287.822,133.474,287.822z M133.374,288.824
		c-0.211,0-0.387,0.076-0.527,0.229c-0.188,0.199-0.336,0.506-0.445,0.922s-0.164,0.816-0.164,1.199c0,0.324,0.077,0.574,0.231,0.75
		s0.337,0.264,0.548,0.264c0.289,0,0.541-0.148,0.756-0.445c0.301-0.414,0.451-0.986,0.451-1.717c0-0.422-0.08-0.729-0.24-0.918
		S133.62,288.824,133.374,288.824z"/>
	<path class="st3" d="M140.698,282.191h3.258c0.773,0,1.465,0.188,2.074,0.564s1.073,0.91,1.392,1.6s0.478,1.438,0.478,2.242
		c0,0.801-0.138,1.521-0.413,2.164s-0.628,1.148-1.058,1.516c-0.309,0.262-0.709,0.473-1.201,0.635s-1.012,0.244-1.559,0.244h-2.971
		V282.191z M142.485,283.703v5.883h1.219c0.434,0,0.819-0.117,1.157-0.35s0.599-0.537,0.782-0.916
		c0.266-0.539,0.398-1.127,0.398-1.764c0-0.867-0.252-1.561-0.756-2.078s-1.15-0.775-1.939-0.775H142.485z"/>
	<path class="st3" d="M149.575,282.191h6.012v1.559h-4.248v1.975h2.59v1.33h-2.59v2.555h4.248v1.547h-6.012V282.191z"/>
	<path class="st3" d="M160.948,282.191h3.258c0.773,0,1.465,0.188,2.074,0.564s1.073,0.91,1.392,1.6s0.478,1.438,0.478,2.242
		c0,0.801-0.138,1.521-0.413,2.164s-0.628,1.148-1.058,1.516c-0.309,0.262-0.709,0.473-1.201,0.635s-1.012,0.244-1.559,0.244h-2.971
		V282.191z M162.735,283.703v5.883h1.219c0.434,0,0.819-0.117,1.157-0.35s0.599-0.537,0.782-0.916
		c0.266-0.539,0.398-1.127,0.398-1.764c0-0.867-0.252-1.561-0.756-2.078s-1.15-0.775-1.939-0.775H162.735z"/>
	<path class="st3" d="M169.825,282.191h6.012v1.559h-4.248v1.975h2.59v1.33h-2.59v2.555h4.248v1.547h-6.012V282.191z"/>
	<path class="st3" d="M178.526,288.648c0.297,0.457,0.589,0.775,0.876,0.955s0.626,0.27,1.017,0.27c0.469,0,0.834-0.117,1.096-0.35
		s0.393-0.506,0.393-0.822c0-0.277-0.104-0.521-0.311-0.732c-0.211-0.211-0.682-0.414-1.412-0.609
		c-0.996-0.262-1.709-0.582-2.139-0.961c-0.535-0.477-0.803-1.066-0.803-1.77c0-0.754,0.268-1.379,0.803-1.873s1.27-0.74,2.203-0.74
		c0.531,0,1.005,0.088,1.421,0.266s0.769,0.406,1.058,0.684c0.188,0.184,0.375,0.436,0.562,0.756l-1.477,0.604
		c-0.25-0.355-0.506-0.615-0.768-0.779s-0.553-0.246-0.873-0.246c-0.395,0-0.71,0.109-0.946,0.33s-0.354,0.488-0.354,0.801
		c0,0.25,0.098,0.465,0.293,0.645c0.191,0.18,0.672,0.365,1.441,0.557s1.353,0.414,1.749,0.668s0.693,0.584,0.891,0.99
		s0.296,0.824,0.296,1.254c0,0.453-0.127,0.908-0.381,1.365s-0.631,0.809-1.131,1.055s-1.074,0.369-1.723,0.369
		c-0.613,0-1.146-0.104-1.597-0.309s-0.833-0.48-1.146-0.828c-0.203-0.223-0.408-0.533-0.615-0.932L178.526,288.648z"/>
	<path class="st3" d="M192.067,288.59c-0.125,0.504-0.283,0.904-0.475,1.201c-0.309,0.48-0.708,0.857-1.198,1.131
		s-1.058,0.41-1.702,0.41c-0.688,0-1.344-0.174-1.969-0.52s-1.1-0.861-1.424-1.549s-0.486-1.498-0.486-2.432
		c0-0.973,0.165-1.832,0.495-2.578s0.81-1.307,1.438-1.68s1.291-0.559,1.986-0.559c0.512,0,1.013,0.113,1.503,0.34
		s0.896,0.547,1.216,0.961c0.223,0.289,0.4,0.672,0.533,1.148l-1.641,0.469c-0.117-0.484-0.325-0.852-0.624-1.1
		s-0.657-0.371-1.075-0.371c-0.625,0-1.111,0.303-1.459,0.908s-0.521,1.396-0.521,2.373c0,0.617,0.08,1.158,0.24,1.623
		s0.381,0.807,0.662,1.027s0.586,0.332,0.914,0.332c0.492,0,0.932-0.178,1.318-0.533c0.273-0.246,0.488-0.602,0.645-1.066
		L192.067,288.59z"/>
	<path class="st3" d="M193.503,282.191h1.77v5.473c0,0.684,0.158,1.195,0.475,1.535s0.746,0.51,1.289,0.51
		c0.348,0,0.656-0.068,0.926-0.205s0.485-0.359,0.647-0.668s0.243-0.699,0.243-1.172v-5.473h1.775v5.73
		c0,1.094-0.299,1.936-0.896,2.525s-1.473,0.885-2.625,0.885c-0.664,0-1.283-0.105-1.857-0.316
		c-0.305-0.113-0.559-0.262-0.762-0.445c-0.281-0.258-0.516-0.588-0.703-0.988s-0.281-0.938-0.281-1.613V282.191z"/>
	<path class="st3" d="M202.685,282.191h6.012v1.559h-4.248v1.975h2.59v1.33h-2.59v2.555h4.248v1.547h-6.012V282.191z"/>
	<path class="st3" d="M210.278,282.191h1.864l3.679,6.018v-6.018h1.746v8.965h-1.746l-3.779-6.252v6.252h-1.764V282.191z"/>
	<path class="st3" d="M219.021,282.191h6.797v1.541h-2.525v7.424h-1.758v-7.424h-2.514V282.191z"/>
	<path class="st3" d="M230.188,282.016c0.844,0,1.523,0.141,2.039,0.422c0.676,0.367,1.191,0.895,1.547,1.582
		s0.533,1.59,0.533,2.707c0,1.516-0.357,2.662-1.072,3.439s-1.66,1.166-2.836,1.166c-1.188,0-2.147-0.396-2.88-1.188
		s-1.099-1.945-1.099-3.465c0-0.914,0.148-1.734,0.445-2.461c0.16-0.402,0.405-0.777,0.735-1.125s0.715-0.615,1.154-0.801
		S229.673,282.016,230.188,282.016z M230.364,283.551c-0.605,0-1.105,0.242-1.5,0.727s-0.592,1.285-0.592,2.402
		c0,1.098,0.2,1.887,0.601,2.367s0.913,0.721,1.538,0.721c0.594,0,1.088-0.24,1.482-0.719s0.592-1.262,0.592-2.352
		c0-1.219-0.24-2.076-0.721-2.572C231.394,283.742,230.927,283.551,230.364,283.551z"/>
	<path class="st3" d="M239.681,282.191h6.012v1.559h-4.248v1.975h2.59v1.33h-2.59v2.555h4.248v1.547h-6.012V282.191z"/>
	<path class="st3" d="M247.274,282.191h1.864l3.679,6.018v-6.018h1.746v8.965h-1.746l-3.779-6.252v6.252h-1.764V282.191z"/>
	<path class="st3" d="M46.107,296.591h6.797v1.541h-2.525v7.424h-1.758v-7.424h-2.514V296.591z"/>
	<path class="st3" d="M57.275,296.415c0.844,0,1.523,0.141,2.039,0.422c0.676,0.367,1.191,0.895,1.547,1.582s0.533,1.59,0.533,2.707
		c0,1.516-0.357,2.662-1.072,3.439s-1.66,1.166-2.836,1.166c-1.188,0-2.147-0.396-2.88-1.187s-1.099-1.946-1.099-3.466
		c0-0.914,0.148-1.734,0.445-2.461c0.16-0.402,0.405-0.777,0.735-1.125s0.715-0.614,1.154-0.8S56.76,296.415,57.275,296.415z
		 M57.451,297.95c-0.605,0-1.105,0.242-1.5,0.727s-0.592,1.285-0.592,2.402c0,1.098,0.2,1.887,0.601,2.367s0.913,0.721,1.538,0.721
		c0.594,0,1.088-0.239,1.482-0.718s0.592-1.263,0.592-2.353c0-1.219-0.24-2.076-0.721-2.572
		C58.48,298.142,58.014,297.95,57.451,297.95z"/>
	<path class="st3" d="M63.023,296.591h3.258c0.773,0,1.465,0.188,2.074,0.565s1.073,0.91,1.392,1.6s0.478,1.437,0.478,2.241
		c0,0.801-0.138,1.522-0.413,2.165s-0.628,1.147-1.058,1.515c-0.309,0.262-0.709,0.474-1.201,0.636s-1.012,0.243-1.559,0.243h-2.971
		V296.591z M64.811,298.103v5.883h1.219c0.434,0,0.819-0.116,1.157-0.349s0.599-0.538,0.782-0.917
		c0.266-0.539,0.398-1.127,0.398-1.764c0-0.867-0.252-1.56-0.756-2.077s-1.15-0.776-1.939-0.776H64.811z"/>
	<path class="st3" d="M75.158,296.415c0.844,0,1.523,0.141,2.039,0.422c0.676,0.367,1.191,0.895,1.547,1.582s0.533,1.59,0.533,2.707
		c0,1.516-0.357,2.662-1.072,3.439s-1.66,1.166-2.836,1.166c-1.188,0-2.147-0.396-2.88-1.187s-1.099-1.946-1.099-3.466
		c0-0.914,0.148-1.734,0.445-2.461c0.16-0.402,0.405-0.777,0.735-1.125s0.715-0.614,1.154-0.8S74.643,296.415,75.158,296.415z
		 M75.334,297.95c-0.605,0-1.105,0.242-1.5,0.727s-0.592,1.285-0.592,2.402c0,1.098,0.2,1.887,0.601,2.367s0.913,0.721,1.538,0.721
		c0.594,0,1.088-0.239,1.482-0.718s0.592-1.263,0.592-2.353c0-1.219-0.24-2.076-0.721-2.572
		C76.363,298.142,75.896,297.95,75.334,297.95z"/>
	<path class="st3" d="M81.984,303.048c0.297,0.457,0.589,0.775,0.876,0.955s0.626,0.27,1.017,0.27c0.469,0,0.834-0.116,1.096-0.349
		s0.393-0.507,0.393-0.823c0-0.277-0.104-0.521-0.311-0.732c-0.211-0.211-0.682-0.414-1.412-0.609
		c-0.996-0.262-1.709-0.582-2.139-0.961c-0.535-0.477-0.803-1.066-0.803-1.77c0-0.754,0.268-1.378,0.803-1.872
		s1.27-0.741,2.203-0.741c0.531,0,1.005,0.089,1.421,0.267s0.769,0.405,1.058,0.683c0.188,0.184,0.375,0.436,0.562,0.756
		l-1.477,0.604c-0.25-0.355-0.506-0.615-0.768-0.779s-0.553-0.246-0.873-0.246c-0.395,0-0.71,0.11-0.946,0.331
		s-0.354,0.487-0.354,0.8c0,0.25,0.098,0.465,0.293,0.645c0.191,0.18,0.672,0.365,1.441,0.557s1.353,0.414,1.749,0.668
		s0.693,0.584,0.891,0.99S87,302.513,87,302.942c0,0.453-0.127,0.908-0.381,1.365s-0.631,0.809-1.131,1.055
		s-1.074,0.369-1.723,0.369c-0.613,0-1.146-0.103-1.597-0.308s-0.833-0.481-1.146-0.829c-0.203-0.223-0.408-0.533-0.615-0.932
		L81.984,303.048z"/>
	<path class="st3" d="M92.496,296.591h1.864l3.679,6.018v-6.018h1.746v8.965h-1.746l-3.779-6.252v6.252h-1.764V296.591z"/>
	<path class="st3" d="M101.824,296.591h1.77v5.473c0,0.684,0.158,1.195,0.475,1.535s0.746,0.51,1.289,0.51
		c0.348,0,0.656-0.068,0.926-0.205s0.485-0.359,0.647-0.668s0.243-0.699,0.243-1.172v-5.473h1.775v5.73
		c0,1.094-0.299,1.936-0.896,2.525s-1.473,0.885-2.625,0.885c-0.664,0-1.283-0.105-1.857-0.316
		c-0.305-0.113-0.559-0.262-0.762-0.445c-0.281-0.258-0.516-0.587-0.703-0.987s-0.281-0.938-0.281-1.614V296.591z"/>
	<path class="st3" d="M111.006,296.591h6.012v1.559h-4.248v1.975h2.59v1.33h-2.59v2.555h4.248v1.547h-6.012V296.591z"/>
	<path class="st3" d="M119.707,303.048c0.297,0.457,0.589,0.775,0.876,0.955s0.626,0.27,1.017,0.27c0.469,0,0.834-0.116,1.096-0.349
		s0.393-0.507,0.393-0.823c0-0.277-0.104-0.521-0.311-0.732c-0.211-0.211-0.682-0.414-1.412-0.609
		c-0.996-0.262-1.709-0.582-2.139-0.961c-0.535-0.477-0.803-1.066-0.803-1.77c0-0.754,0.268-1.378,0.803-1.872
		s1.27-0.741,2.203-0.741c0.531,0,1.005,0.089,1.421,0.267s0.769,0.405,1.058,0.683c0.188,0.184,0.375,0.436,0.562,0.756
		l-1.477,0.604c-0.25-0.355-0.506-0.615-0.768-0.779s-0.553-0.246-0.873-0.246c-0.395,0-0.71,0.11-0.946,0.331
		s-0.354,0.487-0.354,0.8c0,0.25,0.098,0.465,0.293,0.645c0.191,0.18,0.672,0.365,1.441,0.557s1.353,0.414,1.749,0.668
		s0.693,0.584,0.891,0.99s0.296,0.824,0.296,1.254c0,0.453-0.127,0.908-0.381,1.365s-0.631,0.809-1.131,1.055
		s-1.074,0.369-1.723,0.369c-0.613,0-1.146-0.103-1.597-0.308s-0.833-0.481-1.146-0.829c-0.203-0.223-0.408-0.533-0.615-0.932
		L119.707,303.048z"/>
	<path class="st3" d="M125.842,296.591h6.797v1.541h-2.525v7.424h-1.758v-7.424h-2.514V296.591z"/>
	<path class="st3" d="M134.127,296.591h2.42c1.301,0,2.2,0.098,2.698,0.293s0.886,0.518,1.163,0.967s0.416,0.965,0.416,1.547
		c0,0.535-0.125,0.978-0.375,1.327s-0.684,0.649-1.301,0.899l1.612,3.932h-1.747l-1.503-3.604h-1.614v3.604h-1.77V296.591z
		 M135.896,298.155v2.414h1.412c0.516,0,0.955-0.146,1.318-0.439c0.238-0.195,0.357-0.467,0.357-0.814
		c0-0.332-0.133-0.608-0.398-0.829s-0.691-0.331-1.277-0.331H135.896z"/>
	<path class="st3" d="M145.629,296.415c0.844,0,1.523,0.141,2.039,0.422c0.676,0.367,1.191,0.895,1.547,1.582
		s0.533,1.59,0.533,2.707c0,1.516-0.357,2.662-1.072,3.439s-1.66,1.166-2.836,1.166c-1.188,0-2.147-0.396-2.88-1.187
		s-1.099-1.946-1.099-3.466c0-0.914,0.148-1.734,0.445-2.461c0.16-0.402,0.405-0.777,0.735-1.125s0.715-0.614,1.154-0.8
		S145.113,296.415,145.629,296.415z M145.805,297.95c-0.605,0-1.105,0.242-1.5,0.727s-0.592,1.285-0.592,2.402
		c0,1.098,0.2,1.887,0.601,2.367s0.913,0.721,1.538,0.721c0.594,0,1.088-0.239,1.482-0.718s0.592-1.263,0.592-2.353
		c0-1.219-0.24-2.076-0.721-2.572C146.834,298.142,146.367,297.95,145.805,297.95z"/>
	<path class="st3" d="M152.455,303.048c0.297,0.457,0.589,0.775,0.876,0.955s0.626,0.27,1.017,0.27c0.469,0,0.834-0.116,1.096-0.349
		s0.393-0.507,0.393-0.823c0-0.277-0.104-0.521-0.311-0.732c-0.211-0.211-0.682-0.414-1.412-0.609
		c-0.996-0.262-1.709-0.582-2.139-0.961c-0.535-0.477-0.803-1.066-0.803-1.77c0-0.754,0.268-1.378,0.803-1.872
		s1.27-0.741,2.203-0.741c0.531,0,1.005,0.089,1.421,0.267s0.769,0.405,1.058,0.683c0.188,0.184,0.375,0.436,0.562,0.756
		l-1.477,0.604c-0.25-0.355-0.506-0.615-0.768-0.779s-0.553-0.246-0.873-0.246c-0.395,0-0.71,0.11-0.946,0.331
		s-0.354,0.487-0.354,0.8c0,0.25,0.098,0.465,0.293,0.645c0.191,0.18,0.672,0.365,1.441,0.557s1.353,0.414,1.749,0.668
		s0.693,0.584,0.891,0.99s0.296,0.824,0.296,1.254c0,0.453-0.127,0.908-0.381,1.365s-0.631,0.809-1.131,1.055
		s-1.074,0.369-1.723,0.369c-0.613,0-1.146-0.103-1.597-0.308s-0.833-0.481-1.146-0.829c-0.203-0.223-0.408-0.533-0.615-0.932
		L152.455,303.048z"/>
	<path class="st3" d="M164.074,303.048c0.297,0.457,0.589,0.775,0.876,0.955s0.626,0.27,1.017,0.27c0.469,0,0.834-0.116,1.096-0.349
		s0.393-0.507,0.393-0.823c0-0.277-0.104-0.521-0.311-0.732c-0.211-0.211-0.682-0.414-1.412-0.609
		c-0.996-0.262-1.709-0.582-2.139-0.961c-0.535-0.477-0.803-1.066-0.803-1.77c0-0.754,0.268-1.378,0.803-1.872
		s1.27-0.741,2.203-0.741c0.531,0,1.005,0.089,1.421,0.267s0.769,0.405,1.058,0.683c0.188,0.184,0.375,0.436,0.562,0.756
		l-1.477,0.604c-0.25-0.355-0.506-0.615-0.768-0.779s-0.553-0.246-0.873-0.246c-0.395,0-0.71,0.11-0.946,0.331
		s-0.354,0.487-0.354,0.8c0,0.25,0.098,0.465,0.293,0.645c0.191,0.18,0.672,0.365,1.441,0.557s1.353,0.414,1.749,0.668
		s0.693,0.584,0.891,0.99s0.296,0.824,0.296,1.254c0,0.453-0.127,0.908-0.381,1.365s-0.631,0.809-1.131,1.055
		s-1.074,0.369-1.723,0.369c-0.613,0-1.146-0.103-1.597-0.308s-0.833-0.481-1.146-0.829c-0.203-0.223-0.408-0.533-0.615-0.932
		L164.074,303.048z"/>
	<path class="st3" d="M170.859,296.591h6.012v1.559h-4.248v1.975h2.59v1.33h-2.59v2.555h4.248v1.547h-6.012V296.591z"/>
	<path class="st3" d="M178.494,296.591h2.42c1.301,0,2.2,0.098,2.698,0.293s0.886,0.518,1.163,0.967s0.416,0.965,0.416,1.547
		c0,0.535-0.125,0.978-0.375,1.327s-0.684,0.649-1.301,0.899l1.612,3.932h-1.747l-1.503-3.604h-1.614v3.604h-1.77V296.591z
		 M180.264,298.155v2.414h1.412c0.516,0,0.955-0.146,1.318-0.439c0.238-0.195,0.357-0.467,0.357-0.814
		c0-0.332-0.133-0.608-0.398-0.829s-0.691-0.331-1.277-0.331H180.264z"/>
	<path class="st3" d="M185.956,296.591h1.717l1.869,6.164l1.893-6.164h1.691l-2.729,8.965h-1.705L185.956,296.591z"/>
	<path class="st3" d="M194.473,296.591h1.758v8.965h-1.758V296.591z"/>
	<path class="st3" d="M205.242,302.989c-0.125,0.504-0.283,0.904-0.475,1.201c-0.309,0.48-0.708,0.857-1.198,1.131
		s-1.058,0.41-1.702,0.41c-0.688,0-1.344-0.173-1.969-0.519s-1.1-0.862-1.424-1.55s-0.486-1.498-0.486-2.432
		c0-0.973,0.165-1.832,0.495-2.578s0.81-1.306,1.438-1.679s1.291-0.56,1.986-0.56c0.512,0,1.013,0.113,1.503,0.34
		s0.896,0.547,1.216,0.961c0.223,0.289,0.4,0.672,0.533,1.148l-1.641,0.469c-0.117-0.484-0.325-0.851-0.624-1.099
		s-0.657-0.372-1.075-0.372c-0.625,0-1.111,0.303-1.459,0.908s-0.521,1.396-0.521,2.373c0,0.617,0.08,1.158,0.24,1.623
		s0.381,0.808,0.662,1.028s0.586,0.331,0.914,0.331c0.492,0,0.932-0.178,1.318-0.533c0.273-0.246,0.488-0.602,0.645-1.066
		L205.242,302.989z"/>
	<path class="st3" d="M206.859,296.591h1.758v8.965h-1.758V296.591z"/>
	<path class="st3" d="M214.131,296.415c0.844,0,1.523,0.141,2.039,0.422c0.676,0.367,1.191,0.895,1.547,1.582
		s0.533,1.59,0.533,2.707c0,1.516-0.357,2.662-1.072,3.439s-1.66,1.166-2.836,1.166c-1.188,0-2.147-0.396-2.88-1.187
		s-1.099-1.946-1.099-3.466c0-0.914,0.148-1.734,0.445-2.461c0.16-0.402,0.405-0.777,0.735-1.125s0.715-0.614,1.154-0.8
		S213.615,296.415,214.131,296.415z M214.307,297.95c-0.605,0-1.105,0.242-1.5,0.727s-0.592,1.285-0.592,2.402
		c0,1.098,0.2,1.887,0.601,2.367s0.913,0.721,1.538,0.721c0.594,0,1.088-0.239,1.482-0.718s0.592-1.263,0.592-2.353
		c0-1.219-0.24-2.076-0.721-2.572C215.336,298.142,214.869,297.95,214.307,297.95z"/>
	<path class="st3" d="M220.957,303.048c0.297,0.457,0.589,0.775,0.876,0.955s0.626,0.27,1.017,0.27c0.469,0,0.834-0.116,1.096-0.349
		s0.393-0.507,0.393-0.823c0-0.277-0.104-0.521-0.311-0.732c-0.211-0.211-0.682-0.414-1.412-0.609
		c-0.996-0.262-1.709-0.582-2.139-0.961c-0.535-0.477-0.803-1.066-0.803-1.77c0-0.754,0.268-1.378,0.803-1.872
		s1.27-0.741,2.203-0.741c0.531,0,1.005,0.089,1.421,0.267s0.769,0.405,1.058,0.683c0.188,0.184,0.375,0.436,0.562,0.756
		l-1.477,0.604c-0.25-0.355-0.506-0.615-0.768-0.779s-0.553-0.246-0.873-0.246c-0.395,0-0.71,0.11-0.946,0.331
		s-0.354,0.487-0.354,0.8c0,0.25,0.098,0.465,0.293,0.645c0.191,0.18,0.672,0.365,1.441,0.557s1.353,0.414,1.749,0.668
		s0.693,0.584,0.891,0.99s0.296,0.824,0.296,1.254c0,0.453-0.127,0.908-0.381,1.365s-0.631,0.809-1.131,1.055
		s-1.074,0.369-1.723,0.369c-0.613,0-1.146-0.103-1.597-0.308s-0.833-0.481-1.146-0.829c-0.203-0.223-0.408-0.533-0.615-0.932
		L220.957,303.048z"/>
	<path class="st3" d="M231.498,296.591h3.258c0.773,0,1.465,0.188,2.074,0.565s1.073,0.91,1.392,1.6s0.478,1.437,0.478,2.241
		c0,0.801-0.138,1.522-0.413,2.165s-0.628,1.147-1.058,1.515c-0.309,0.262-0.709,0.474-1.201,0.636s-1.012,0.243-1.559,0.243h-2.971
		V296.591z M233.285,298.103v5.883h1.219c0.434,0,0.819-0.116,1.157-0.349s0.599-0.538,0.782-0.917
		c0.266-0.539,0.398-1.127,0.398-1.764c0-0.867-0.252-1.56-0.756-2.077s-1.15-0.776-1.939-0.776H233.285z"/>
	<path class="st3" d="M240.375,296.591h6.012v1.559h-4.248v1.975h2.59v1.33h-2.59v2.555h4.248v1.547h-6.012V296.591z"/>
	<path class="st3" d="M248.221,299.169h1.775v1.928h-1.775V299.169z M248.221,303.604h1.775v1.951h-1.775V303.604z"/>
</g>
<g class="st1">
	<g>
		<path class="st4" d="M112.236,104.003c3.042-2.616,5.754-4.44,8.136-5.472s4.977-1.547,7.785-1.547
			c5.084,0,9.072,1.51,11.964,4.53c2.276,2.425,3.414,5.126,3.414,8.104c0,2.425-0.845,4.637-2.536,6.636
			c-1.691,1.999-4.121,3.414-7.29,4.243c3.488,1.702,6.104,3.712,7.849,6.03c1.744,2.318,2.616,4.935,2.616,7.849
			c0,3.68-1.484,6.822-4.451,9.428c-2.967,2.606-7.078,3.908-12.331,3.908c-2.723,0-5.153-0.415-7.29-1.244
			s-4.068-1.978-5.791-3.446c-1.191-1.021-2.563-2.584-4.116-4.69l6.987-4.371c2.021,2.233,3.871,3.839,5.551,4.818
			c1.68,0.978,3.35,1.468,5.009,1.468c2.021,0,3.722-0.665,5.105-1.994c1.383-1.329,2.074-2.898,2.074-4.706
			c0-2.318-0.973-4.27-2.919-5.855c-1.946-1.585-5.355-2.377-10.226-2.377h-2.967v-8.391h2.233c5.169,0,8.848-0.744,11.039-2.233
			c1.553-1.063,2.329-2.457,2.329-4.18c0-1.446-0.67-2.776-2.01-3.988c-1.34-1.212-2.935-1.819-4.786-1.819
			c-3.19,0-6.338,1.659-9.444,4.977L112.236,104.003z"/>
	</g>
	<g>
		<path class="st4" d="M167.782,96.984c5.785,0,10.316,1.92,13.592,5.759c3.276,3.839,4.913,10.353,4.913,19.542
			c0,9.21-1.606,15.75-4.818,19.622c-3.212,3.871-7.508,5.807-12.89,5.807c-3.552,0-6.37-0.553-8.455-1.659
			c-3.169-1.68-5.509-4.084-7.019-7.211c-1.936-3.999-2.903-9.38-2.903-16.144c0-9.316,1.611-15.931,4.834-19.845
			C158.259,98.941,162.507,96.984,167.782,96.984z M168.325,104.896c-1.595,0-3.1,0.574-4.515,1.723
			c-1.414,1.149-2.457,2.877-3.127,5.185c-0.67,2.308-1.005,6.642-1.005,13.001c0,5.615,0.851,9.529,2.552,11.741
			c1.702,2.212,3.722,3.318,6.062,3.318c1.489,0,2.967-0.558,4.435-1.675c1.468-1.117,2.531-2.765,3.19-4.945
			c0.659-2.18,0.989-6.152,0.989-11.916c0-6.466-0.851-10.821-2.552-13.065S170.643,104.896,168.325,104.896z"/>
	</g>
	<g>
		<path class="st4" d="M111.236,156.031h3.341c1.192,0,2.081,0.097,2.668,0.29c0.587,0.193,1.061,0.53,1.422,1.011
			s0.542,1.069,0.542,1.764c0,0.538-0.104,1.035-0.311,1.491c-0.161,0.345-0.406,0.651-0.735,0.918s-0.659,0.467-0.99,0.6
			c-0.561,0.23-1.224,0.345-1.988,0.345h-1.85v4.141h-2.098V156.031z M113.335,157.86v2.864h1.698c0.635,0,1.164-0.175,1.588-0.525
			c0.281-0.23,0.421-0.561,0.421-0.994c0-0.4-0.15-0.725-0.449-0.973c-0.299-0.248-0.801-0.373-1.505-0.373H113.335z"/>
	</g>
	<g>
		<path class="st4" d="M121.134,156.031h7.082v1.836h-5.004v2.326h3.051v1.567h-3.051v3.009h5.004v1.822h-7.082V156.031z"/>
	</g>
	<g>
		<path class="st4" d="M130.128,156.031h2.851c1.532,0,2.592,0.115,3.179,0.345c0.587,0.23,1.043,0.61,1.37,1.139
			c0.327,0.529,0.49,1.137,0.49,1.822c0,0.63-0.147,1.152-0.442,1.563s-0.805,0.765-1.532,1.06l1.899,4.631h-2.058l-1.77-4.245
			h-1.902v4.245h-2.085V156.031z M132.212,157.874v2.844h1.663c0.607,0,1.125-0.173,1.553-0.518c0.281-0.23,0.421-0.55,0.421-0.959
			c0-0.391-0.156-0.717-0.469-0.977c-0.313-0.26-0.814-0.39-1.505-0.39H132.212z"/>
	</g>
	<g>
		<path class="st4" d="M141.254,163.637c0.35,0.538,0.694,0.913,1.032,1.125s0.737,0.318,1.198,0.318
			c0.552,0,0.982-0.137,1.291-0.411s0.462-0.597,0.462-0.97c0-0.327-0.122-0.614-0.366-0.863c-0.248-0.248-0.803-0.488-1.663-0.718
			c-1.173-0.308-2.013-0.686-2.519-1.132c-0.63-0.561-0.946-1.256-0.946-2.084c0-0.888,0.315-1.623,0.946-2.205
			c0.63-0.582,1.495-0.873,2.595-0.873c0.626,0,1.184,0.105,1.674,0.314c0.49,0.209,0.905,0.477,1.246,0.804
			c0.221,0.216,0.442,0.513,0.663,0.89l-1.739,0.711c-0.294-0.419-0.596-0.725-0.904-0.918s-0.651-0.29-1.028-0.29
			c-0.465,0-0.836,0.13-1.115,0.39c-0.278,0.26-0.418,0.574-0.418,0.942c0,0.294,0.115,0.548,0.345,0.759
			c0.225,0.212,0.791,0.43,1.698,0.656c0.906,0.225,1.593,0.488,2.06,0.787c0.467,0.299,0.817,0.688,1.049,1.167
			c0.232,0.479,0.349,0.971,0.349,1.477c0,0.534-0.15,1.07-0.449,1.608c-0.299,0.538-0.743,0.953-1.332,1.242
			c-0.589,0.29-1.265,0.435-2.029,0.435c-0.722,0-1.349-0.121-1.881-0.362c-0.531-0.242-0.981-0.567-1.349-0.977
			c-0.239-0.262-0.481-0.628-0.725-1.097L141.254,163.637z"/>
	</g>
	<g>
		<path class="st4" d="M153.085,155.824c0.994,0,1.795,0.166,2.402,0.497c0.796,0.433,1.403,1.054,1.822,1.864
			c0.419,0.81,0.628,1.873,0.628,3.189c0,1.785-0.421,3.136-1.263,4.052c-0.842,0.916-1.956,1.374-3.341,1.374
			c-1.399,0-2.53-0.466-3.392-1.398c-0.863-0.932-1.294-2.293-1.294-4.083c0-1.077,0.175-2.043,0.525-2.899
			c0.189-0.474,0.477-0.916,0.866-1.325s0.842-0.724,1.36-0.942C151.915,155.933,152.478,155.824,153.085,155.824z M153.292,157.632
			c-0.713,0-1.302,0.285-1.767,0.856c-0.465,0.571-0.697,1.514-0.697,2.83c0,1.293,0.236,2.223,0.707,2.789
			c0.472,0.566,1.076,0.849,1.812,0.849c0.699,0,1.282-0.282,1.746-0.846c0.465-0.564,0.697-1.487,0.697-2.771
			c0-1.436-0.283-2.446-0.849-3.03C154.505,157.857,153.955,157.632,153.292,157.632z"/>
	</g>
	<g>
		<path class="st4" d="M159.822,156.031h2.196l4.333,7.089v-7.089h2.057v10.561h-2.057l-4.452-7.365v7.365h-2.078V156.031z"/>
	</g>
	<g>
		<path class="st4" d="M173.172,156.031h2.203l3.438,10.561h-2.043l-0.802-2.478h-3.375l-0.8,2.478h-2.043L173.172,156.031z
			 M174.279,158.888l-1.21,3.686h2.403L174.279,158.888z"/>
	</g>
	<g>
		<path class="st4" d="M181.592,163.637c0.35,0.538,0.694,0.913,1.032,1.125s0.737,0.318,1.198,0.318
			c0.552,0,0.982-0.137,1.291-0.411s0.462-0.597,0.462-0.97c0-0.327-0.122-0.614-0.366-0.863c-0.248-0.248-0.803-0.488-1.663-0.718
			c-1.173-0.308-2.013-0.686-2.519-1.132c-0.63-0.561-0.946-1.256-0.946-2.084c0-0.888,0.315-1.623,0.946-2.205
			c0.63-0.582,1.495-0.873,2.595-0.873c0.626,0,1.184,0.105,1.674,0.314c0.49,0.209,0.905,0.477,1.246,0.804
			c0.221,0.216,0.442,0.513,0.663,0.89l-1.739,0.711c-0.295-0.419-0.596-0.725-0.904-0.918s-0.651-0.29-1.028-0.29
			c-0.465,0-0.836,0.13-1.115,0.39s-0.418,0.574-0.418,0.942c0,0.294,0.115,0.548,0.345,0.759c0.225,0.212,0.791,0.43,1.698,0.656
			c0.906,0.225,1.593,0.488,2.06,0.787c0.467,0.299,0.817,0.688,1.049,1.167s0.349,0.971,0.349,1.477c0,0.534-0.15,1.07-0.449,1.608
			s-0.743,0.953-1.332,1.242c-0.589,0.29-1.265,0.435-2.029,0.435c-0.722,0-1.349-0.121-1.881-0.362s-0.981-0.567-1.349-0.977
			c-0.239-0.262-0.481-0.628-0.725-1.097L181.592,163.637z"/>
	</g>
</g>
<g>
	<g>
		<path class="st3" d="M148.5,218.5C99.149,218.5,59,178.351,59,129s40.149-89.5,89.5-89.5S238,79.649,238,129
			S197.851,218.5,148.5,218.5z M148.5,40.5C99.701,40.5,60,80.201,60,129s39.701,88.5,88.5,88.5S237,177.799,237,129
			S197.299,40.5,148.5,40.5z"/>
	</g>
</g>
</svg>