<!-- Generator: Adobe Illustrator 22.0.1, SVG Export Plug-In  -->
<svg version="1.1"
	 xmlns="http://www.w3.org/2000/svg" xmlns:xlink="http://www.w3.org/1999/xlink" xmlns:a="http://ns.adobe.com/AdobeSVGViewerExtensions/3.0/"
	 x="0px" y="0px" width="297px" height="422px" viewBox="0 0 297 422" style="enable-background:new 0 0 297 422;"
	 xml:space="preserve">
<style type="text/css">
	.st0{fill-rule:evenodd;clip-rule:evenodd;fill:#3F3F41;}
	.st1{opacity:0.9;}
	.st2{fill:#292849;}
	.st3{fill:#FFFFFF;}
	.st4{fill:#1B1464;}
</style>
<defs>
</defs>
<g>
	<path class="st0" d="M101.98,194h37.556h2.721l-1.815,2.143l-37.556,41.472l-2.098-0.62v-41.757V194H101.98z M140.564,315.648
		h5.936c0.29,0,0.497,0.205,0.497,0.496l0,0c0,0.288-0.207,0.535-0.497,0.535h-5.936c-0.207,0.742-0.905,1.32-1.774,1.32
		c-1.028,0-1.852-0.825-1.852-1.855c0-1.031,0.824-1.856,1.852-1.856C139.659,314.288,140.358,314.865,140.564,315.648
		L140.564,315.648z M73.782,322.12h18.346v-46.829H73.33l75.151-78.529l75.19,78.529h-18.796v46.829h14.592v22.179H73.782V322.12z
		 M132.444,290.997h32.112v50.744h-32.112V290.997z"/>
</g>
<g class="st1">
	<g>
		<rect x="8.5" y="10" class="st2" width="280" height="404"/>
	</g>
</g>
<g>
	<circle class="st3" cx="148.5" cy="105.5" r="67.5"/>
</g>
<g>
	<g>
		<path d="M117.202,82.738c2.617-0.577,4.764-1.168,6.442-1.773c1.678-0.605,3.429-1.385,5.251-2.341h5.901v35.431h8.201v5.982
			h-25.795v-5.982h10.394V86.013c-3.032,1.155-6.496,1.895-10.394,2.22V82.738z"/>
	</g>
	<g>
		<path d="M163.487,77.812c4.908,0,8.752,1.629,11.531,4.886s4.168,8.783,4.168,16.579c0,7.813-1.362,13.362-4.087,16.646
			c-2.725,3.284-6.37,4.926-10.935,4.926c-3.014,0-5.404-0.469-7.173-1.408c-2.689-1.426-4.674-3.465-5.955-6.117
			c-1.642-3.392-2.463-7.958-2.463-13.696c0-7.904,1.367-13.516,4.101-16.836C155.408,79.472,159.012,77.812,163.487,77.812z
			 M163.947,84.524c-1.353,0-2.63,0.487-3.83,1.462c-1.2,0.974-2.084,2.441-2.653,4.398s-0.853,5.635-0.853,11.03
			c0,4.764,0.722,8.084,2.165,9.961c1.444,1.877,3.158,2.815,5.143,2.815c1.263,0,2.517-0.474,3.762-1.421s2.147-2.346,2.707-4.195
			c0.559-1.85,0.839-5.219,0.839-10.11c0-5.486-0.722-9.18-2.165-11.084C167.62,85.476,165.914,84.524,163.947,84.524z"/>
	</g>
	<g>
		<path d="M117.366,127.311h2.941c1.031,0,1.817,0.236,2.358,0.709s0.812,1.031,0.812,1.676c0,0.375-0.072,0.706-0.217,0.993
			s-0.358,0.542-0.642,0.765s-0.62,0.399-1.011,0.53s-0.875,0.196-1.453,0.196h-1.934v4.014h-0.855V127.311z M118.21,128.078v3.328
			h1.881c0.871,0,1.49-0.154,1.857-0.463s0.551-0.713,0.551-1.213c0-0.57-0.244-1.006-0.732-1.307
			c-0.375-0.23-0.975-0.346-1.799-0.346H118.21z"/>
	</g>
	<g>
		<path d="M125.487,127.311h5.232v0.844h-4.371v2.9h3.252v0.855h-3.252v3.428h4.793v0.855h-5.654V127.311z"/>
	</g>
	<g>
		<path d="M132.97,127.311h2.719c0.777,0,1.402,0.092,1.875,0.275s0.845,0.47,1.116,0.858s0.407,0.817,0.407,1.286
			c0,0.512-0.161,0.966-0.483,1.362s-0.812,0.694-1.468,0.894l2.159,4.207h-0.925l-2.095-4.031h-2.443v4.031h-0.861V127.311z
			 M133.831,128.078v3.322h1.893c0.461,0,0.918-0.076,1.371-0.229c0.328-0.109,0.581-0.294,0.759-0.554s0.267-0.562,0.267-0.905
			c0-0.477-0.173-0.868-0.519-1.175s-0.866-0.46-1.562-0.46H133.831z"/>
	</g>
	<g>
		<path d="M141.425,133.703c0.098,0.352,0.207,0.623,0.328,0.814c0.203,0.316,0.471,0.569,0.803,0.759s0.734,0.284,1.207,0.284
			c0.66,0,1.179-0.169,1.556-0.507s0.565-0.739,0.565-1.204c0-0.422-0.17-0.781-0.51-1.078c-0.262-0.223-0.789-0.447-1.582-0.674
			c-1.07-0.309-1.834-0.666-2.291-1.072c-0.457-0.402-0.686-0.9-0.686-1.494c0-0.652,0.255-1.214,0.765-1.685
			s1.179-0.706,2.007-0.706c0.504,0,0.979,0.094,1.424,0.281s0.818,0.467,1.119,0.838c0.207,0.258,0.371,0.594,0.492,1.008
			l-0.896,0.275c-0.152-0.527-0.415-0.932-0.788-1.213s-0.819-0.422-1.339-0.422c-0.551,0-0.994,0.15-1.33,0.451
			c-0.336,0.301-0.504,0.656-0.504,1.066c0,0.336,0.137,0.64,0.411,0.914c0.27,0.273,0.863,0.542,1.782,0.807
			c1.09,0.312,1.842,0.673,2.255,1.083c0.41,0.415,0.615,0.937,0.615,1.566c0,0.711-0.279,1.318-0.838,1.821
			s-1.301,0.753-2.227,0.753c-0.578,0-1.107-0.114-1.588-0.343s-0.871-0.546-1.172-0.952c-0.207-0.273-0.375-0.648-0.504-1.125
			L141.425,133.703z"/>
	</g>
	<g>
		<path d="M151.972,136.369c-1.027,0-1.875-0.375-2.543-1.125c-0.781-0.883-1.172-2.021-1.172-3.416
			c0-0.883,0.157-1.701,0.472-2.455s0.762-1.314,1.342-1.682s1.216-0.551,1.907-0.551c0.602,0,1.135,0.134,1.6,0.401
			s0.847,0.615,1.146,1.043s0.524,0.913,0.677,1.456s0.229,1.121,0.229,1.734c0,0.672-0.082,1.259-0.246,1.761
			s-0.362,0.922-0.595,1.26s-0.468,0.604-0.706,0.8c-0.312,0.262-0.665,0.456-1.058,0.583S152.28,136.369,151.972,136.369z
			 M151.884,135.566c0.766,0,1.421-0.319,1.966-0.958s0.817-1.571,0.817-2.798c0-1.297-0.299-2.312-0.896-3.047
			c-0.469-0.57-1.08-0.855-1.834-0.855c-0.734,0-1.369,0.323-1.904,0.97s-0.803,1.612-0.803,2.897c0,1.266,0.264,2.214,0.791,2.845
			S151.169,135.566,151.884,135.566z"/>
	</g>
	<g>
		<path d="M157.579,127.311h1.345l4.397,7.26v-7.26h0.855v8.883h-0.855l-4.881-8.109v8.109h-0.861V127.311z"/>
	</g>
	<g>
		<path d="M168.337,127.311h1.379l2.848,8.883h-0.867l-0.887-2.754h-3.59l-0.896,2.754h-0.873L168.337,127.311z M169.025,127.896
			l-1.524,4.682h3.032L169.025,127.896z"/>
	</g>
	<g>
		<path d="M174.419,133.703c0.098,0.352,0.207,0.623,0.328,0.814c0.203,0.316,0.471,0.569,0.803,0.759s0.734,0.284,1.207,0.284
			c0.66,0,1.179-0.169,1.556-0.507s0.565-0.739,0.565-1.204c0-0.422-0.17-0.781-0.51-1.078c-0.262-0.223-0.789-0.447-1.582-0.674
			c-1.07-0.309-1.834-0.666-2.291-1.072c-0.457-0.402-0.686-0.9-0.686-1.494c0-0.652,0.255-1.214,0.765-1.685
			s1.179-0.706,2.007-0.706c0.504,0,0.979,0.094,1.424,0.281s0.818,0.467,1.119,0.838c0.207,0.258,0.371,0.594,0.492,1.008
			l-0.896,0.275c-0.152-0.527-0.415-0.932-0.788-1.213s-0.819-0.422-1.339-0.422c-0.551,0-0.994,0.15-1.33,0.451
			c-0.336,0.301-0.504,0.656-0.504,1.066c0,0.336,0.137,0.64,0.411,0.914c0.27,0.273,0.863,0.542,1.782,0.807
			c1.09,0.312,1.842,0.673,2.255,1.083c0.41,0.415,0.615,0.937,0.615,1.566c0,0.711-0.279,1.318-0.838,1.821
			s-1.301,0.753-2.227,0.753c-0.578,0-1.107-0.114-1.588-0.343s-0.871-0.546-1.172-0.952c-0.207-0.273-0.375-0.648-0.504-1.125
			L174.419,133.703z"/>
	</g>
</g>
<g>
	<rect x="36" y="193.5" class="st3" width="225" height="1"/>
</g>
<g>
	<path class="st3" d="M56.091,212.015c0.844,0,1.523,0.141,2.039,0.422c0.676,0.367,1.191,0.895,1.547,1.582s0.533,1.59,0.533,2.707
		c0,1.516-0.357,2.662-1.072,3.439s-1.66,1.166-2.836,1.166c-1.188,0-2.147-0.396-2.88-1.187s-1.099-1.946-1.099-3.466
		c0-0.914,0.148-1.734,0.445-2.461c0.16-0.402,0.405-0.777,0.735-1.125s0.715-0.614,1.154-0.8S55.576,212.015,56.091,212.015z
		 M56.267,213.55c-0.605,0-1.105,0.242-1.5,0.727s-0.592,1.285-0.592,2.402c0,1.098,0.2,1.887,0.601,2.367s0.913,0.721,1.538,0.721
		c0.594,0,1.088-0.239,1.482-0.718s0.592-1.263,0.592-2.353c0-1.219-0.24-2.076-0.721-2.572
		C57.296,213.742,56.83,213.55,56.267,213.55z"/>
	<path class="st3" d="M61.828,212.191h3.82c0.906,0,1.58,0.139,2.021,0.416c0.633,0.398,0.949,0.973,0.949,1.723
		c0,0.562-0.189,1.037-0.568,1.424c-0.254,0.258-0.625,0.473-1.113,0.645c0.418,0.125,0.736,0.27,0.955,0.434
		c0.305,0.227,0.541,0.506,0.709,0.838s0.252,0.672,0.252,1.02c0,0.406-0.105,0.8-0.316,1.181s-0.547,0.69-1.008,0.929
		s-1.047,0.357-1.758,0.357h-3.943V212.191z M63.58,213.55v2.156h1.881c0.402,0,0.752-0.125,1.049-0.375
		c0.191-0.16,0.287-0.4,0.287-0.721c0-0.316-0.111-0.572-0.334-0.768s-0.572-0.293-1.049-0.293H63.58z M63.58,217.089v2.689h1.412
		c0.73,0,1.25-0.126,1.559-0.378s0.463-0.583,0.463-0.993c0-0.379-0.141-0.693-0.422-0.943s-0.691-0.375-1.23-0.375H63.58z"/>
	<path class="st3" d="M69.814,212.191h6.797v1.541h-2.525v7.424h-1.758v-7.424h-2.514V212.191z"/>
	<path class="st3" d="M78.082,212.191h6.012v1.559h-4.248v1.975h2.59v1.33h-2.59v2.555h4.248v1.547h-6.012V212.191z M81.187,209.712
		h1.91l-2.297,1.846h-1.213L81.187,209.712z"/>
	<path class="st3" d="M85.675,212.191h1.864l3.679,6.018v-6.018h1.746v8.965h-1.746l-3.779-6.252v6.252h-1.764V212.191z"/>
	<path class="st3" d="M98.753,212.191h1.77v5.473c0,0.684,0.158,1.195,0.475,1.535s0.746,0.51,1.289,0.51
		c0.348,0,0.656-0.068,0.926-0.205s0.485-0.359,0.647-0.668s0.243-0.699,0.243-1.172v-5.473h1.775v5.73
		c0,1.094-0.299,1.936-0.896,2.525s-1.473,0.885-2.625,0.885c-0.664,0-1.283-0.105-1.857-0.316
		c-0.305-0.113-0.559-0.262-0.762-0.445c-0.281-0.258-0.516-0.587-0.703-0.987s-0.281-0.938-0.281-1.614V212.191z"/>
	<path class="st3" d="M107.912,212.191h1.864l3.679,6.018v-6.018h1.746v8.965h-1.746l-3.779-6.252v6.252h-1.764V212.191z"/>
	<path class="st3" d="M121.119,213.082c0.566-0.125,1.031-0.253,1.395-0.384s0.742-0.3,1.137-0.507h1.277v7.67h1.775v1.295h-5.584
		v-1.295h2.25v-6.07c-0.656,0.25-1.406,0.41-2.25,0.48V213.082z"/>
	<path class="st3" d="M131.138,212.015c1.062,0,1.895,0.353,2.496,1.058s0.902,1.901,0.902,3.589c0,1.691-0.295,2.893-0.885,3.604
		s-1.379,1.066-2.367,1.066c-0.652,0-1.17-0.102-1.553-0.305c-0.582-0.309-1.012-0.75-1.289-1.324
		c-0.355-0.734-0.533-1.723-0.533-2.965c0-1.711,0.296-2.926,0.888-3.645S130.169,212.015,131.138,212.015z M131.238,213.468
		c-0.293,0-0.569,0.105-0.829,0.316s-0.451,0.528-0.574,0.952s-0.185,1.22-0.185,2.388c0,1.031,0.156,1.75,0.469,2.156
		s0.684,0.609,1.113,0.609c0.273,0,0.545-0.103,0.814-0.308s0.465-0.508,0.586-0.908s0.182-1.13,0.182-2.188
		c0-1.188-0.156-1.987-0.469-2.399S131.664,213.468,131.238,213.468z"/>
	<path class="st3" d="M143.46,212.132h0.954l-6.667,11.525h-0.996l5.806-9.999c-0.736,0.356-1.386,0.534-1.949,0.534
		c-0.219,0-0.45-0.031-0.693-0.094c0.051,0.223,0.076,0.45,0.076,0.68c0,0.903-0.247,1.676-0.741,2.319s-1.136,0.964-1.925,0.964
		c-0.613,0-1.118-0.202-1.515-0.606s-0.595-0.948-0.595-1.632c0-0.594,0.121-1.146,0.363-1.655s0.564-0.891,0.967-1.143
		s0.842-0.378,1.318-0.378c0.457,0,0.912,0.143,1.365,0.428s0.916,0.428,1.389,0.428c0.309,0,0.673-0.061,1.093-0.182
		s0.734-0.252,0.943-0.393S143.132,212.523,143.46,212.132z M137.753,213.662c-0.367,0-0.637,0.209-0.809,0.627
		c-0.223,0.555-0.334,1.129-0.334,1.723c0,0.324,0.074,0.572,0.223,0.744s0.33,0.258,0.545,0.258c0.191,0,0.383-0.078,0.574-0.234
		s0.345-0.416,0.46-0.779s0.173-0.771,0.173-1.225c0-0.383-0.078-0.664-0.234-0.844S137.996,213.662,137.753,213.662z
		 M143.841,217.822c0.648,0,1.169,0.202,1.562,0.606s0.589,0.952,0.589,1.644c0,0.551-0.117,1.084-0.352,1.6
		s-0.559,0.903-0.973,1.163s-0.875,0.39-1.383,0.39c-0.617,0-1.119-0.202-1.506-0.606s-0.58-0.956-0.58-1.655
		c0-0.535,0.118-1.066,0.354-1.594s0.558-0.917,0.964-1.169S143.365,217.822,143.841,217.822z M143.742,218.824
		c-0.211,0-0.387,0.076-0.527,0.229c-0.188,0.199-0.336,0.507-0.445,0.923s-0.164,0.815-0.164,1.198c0,0.324,0.077,0.574,0.231,0.75
		s0.337,0.264,0.548,0.264c0.289,0,0.541-0.148,0.756-0.445c0.301-0.414,0.451-0.986,0.451-1.717c0-0.422-0.08-0.728-0.24-0.917
		S143.988,218.824,143.742,218.824z"/>
	<path class="st3" d="M151.066,212.191h3.258c0.773,0,1.465,0.188,2.074,0.565s1.073,0.91,1.392,1.6s0.478,1.437,0.478,2.241
		c0,0.801-0.138,1.522-0.413,2.165s-0.628,1.147-1.058,1.515c-0.309,0.262-0.709,0.474-1.201,0.636s-1.012,0.243-1.559,0.243h-2.971
		V212.191z M152.854,213.703v5.883h1.219c0.434,0,0.819-0.116,1.157-0.349s0.599-0.538,0.782-0.917
		c0.266-0.539,0.398-1.127,0.398-1.764c0-0.867-0.252-1.56-0.756-2.077s-1.15-0.776-1.939-0.776H152.854z"/>
	<path class="st3" d="M159.943,212.191h6.012v1.559h-4.248v1.975h2.59v1.33h-2.59v2.555h4.248v1.547h-6.012V212.191z"/>
	<path class="st3" d="M171.316,212.191h3.258c0.773,0,1.465,0.188,2.074,0.565s1.073,0.91,1.392,1.6s0.478,1.437,0.478,2.241
		c0,0.801-0.138,1.522-0.413,2.165s-0.628,1.147-1.058,1.515c-0.309,0.262-0.709,0.474-1.201,0.636s-1.012,0.243-1.559,0.243h-2.971
		V212.191z M173.104,213.703v5.883h1.219c0.434,0,0.819-0.116,1.157-0.349s0.599-0.538,0.782-0.917
		c0.266-0.539,0.398-1.127,0.398-1.764c0-0.867-0.252-1.56-0.756-2.077s-1.15-0.776-1.939-0.776H173.104z"/>
	<path class="st3" d="M180.193,212.191h6.012v1.559h-4.248v1.975h2.59v1.33h-2.59v2.555h4.248v1.547h-6.012V212.191z"/>
	<path class="st3" d="M188.895,218.648c0.297,0.457,0.589,0.775,0.876,0.955s0.626,0.27,1.017,0.27c0.469,0,0.834-0.116,1.096-0.349
		s0.393-0.507,0.393-0.823c0-0.277-0.104-0.521-0.311-0.732c-0.211-0.211-0.682-0.414-1.412-0.609
		c-0.996-0.262-1.709-0.582-2.139-0.961c-0.535-0.477-0.803-1.066-0.803-1.77c0-0.754,0.268-1.378,0.803-1.872
		s1.27-0.741,2.203-0.741c0.531,0,1.005,0.089,1.421,0.267s0.769,0.405,1.058,0.683c0.188,0.184,0.375,0.436,0.562,0.756
		l-1.477,0.604c-0.25-0.355-0.506-0.615-0.768-0.779s-0.553-0.246-0.873-0.246c-0.395,0-0.71,0.11-0.946,0.331
		s-0.354,0.487-0.354,0.8c0,0.25,0.098,0.465,0.293,0.645c0.191,0.18,0.672,0.365,1.441,0.557s1.353,0.414,1.749,0.668
		s0.693,0.584,0.891,0.99s0.296,0.824,0.296,1.254c0,0.453-0.127,0.908-0.381,1.365s-0.631,0.809-1.131,1.055
		s-1.074,0.369-1.723,0.369c-0.613,0-1.146-0.103-1.597-0.308s-0.833-0.481-1.146-0.829c-0.203-0.223-0.408-0.533-0.615-0.932
		L188.895,218.648z"/>
	<path class="st3" d="M202.436,218.589c-0.125,0.504-0.283,0.904-0.475,1.201c-0.309,0.48-0.708,0.857-1.198,1.131
		s-1.058,0.41-1.702,0.41c-0.688,0-1.344-0.173-1.969-0.519s-1.1-0.862-1.424-1.55s-0.486-1.498-0.486-2.432
		c0-0.973,0.165-1.832,0.495-2.578s0.81-1.306,1.438-1.679s1.291-0.56,1.986-0.56c0.512,0,1.013,0.113,1.503,0.34
		s0.896,0.547,1.216,0.961c0.223,0.289,0.4,0.672,0.533,1.148l-1.641,0.469c-0.117-0.484-0.325-0.851-0.624-1.099
		s-0.657-0.372-1.075-0.372c-0.625,0-1.111,0.303-1.459,0.908s-0.521,1.396-0.521,2.373c0,0.617,0.08,1.158,0.24,1.623
		s0.381,0.808,0.662,1.028s0.586,0.331,0.914,0.331c0.492,0,0.932-0.178,1.318-0.533c0.273-0.246,0.488-0.602,0.645-1.066
		L202.436,218.589z"/>
	<path class="st3" d="M203.871,212.191h1.77v5.473c0,0.684,0.158,1.195,0.475,1.535s0.746,0.51,1.289,0.51
		c0.348,0,0.656-0.068,0.926-0.205s0.485-0.359,0.647-0.668s0.243-0.699,0.243-1.172v-5.473h1.775v5.73
		c0,1.094-0.299,1.936-0.896,2.525s-1.473,0.885-2.625,0.885c-0.664,0-1.283-0.105-1.857-0.316
		c-0.305-0.113-0.559-0.262-0.762-0.445c-0.281-0.258-0.516-0.587-0.703-0.987s-0.281-0.938-0.281-1.614V212.191z"/>
	<path class="st3" d="M213.053,212.191h6.012v1.559h-4.248v1.975h2.59v1.33h-2.59v2.555h4.248v1.547h-6.012V212.191z"/>
	<path class="st3" d="M220.646,212.191h1.864l3.679,6.018v-6.018h1.746v8.965h-1.746l-3.779-6.252v6.252h-1.764V212.191z"/>
	<path class="st3" d="M229.389,212.191h6.797v1.541h-2.525v7.424h-1.758v-7.424h-2.514V212.191z"/>
	<path class="st3" d="M240.557,212.015c0.844,0,1.523,0.141,2.039,0.422c0.676,0.367,1.191,0.895,1.547,1.582
		s0.533,1.59,0.533,2.707c0,1.516-0.357,2.662-1.072,3.439s-1.66,1.166-2.836,1.166c-1.188,0-2.147-0.396-2.88-1.187
		s-1.099-1.946-1.099-3.466c0-0.914,0.148-1.734,0.445-2.461c0.16-0.402,0.405-0.777,0.735-1.125s0.715-0.614,1.154-0.8
		S240.041,212.015,240.557,212.015z M240.732,213.55c-0.605,0-1.105,0.242-1.5,0.727s-0.592,1.285-0.592,2.402
		c0,1.098,0.2,1.887,0.601,2.367s0.913,0.721,1.538,0.721c0.594,0,1.088-0.239,1.482-0.718s0.592-1.263,0.592-2.353
		c0-1.219-0.24-2.076-0.721-2.572C241.762,213.742,241.295,213.55,240.732,213.55z"/>
	<path class="st3" d="M80.094,226.591h6.012v1.559h-4.248v1.975h2.59v1.33h-2.59v2.555h4.248v1.547h-6.012V226.591z"/>
	<path class="st3" d="M87.688,226.591h1.864l3.679,6.018v-6.018h1.746v8.965h-1.746l-3.779-6.252v6.252h-1.764V226.591z"/>
	<path class="st3" d="M100.766,226.591h1.77v5.473c0,0.684,0.158,1.195,0.475,1.535s0.746,0.51,1.289,0.51
		c0.348,0,0.656-0.068,0.926-0.205s0.485-0.359,0.647-0.668s0.243-0.699,0.243-1.172v-5.473h1.775v5.73
		c0,1.094-0.299,1.936-0.896,2.525s-1.473,0.885-2.625,0.885c-0.664,0-1.283-0.105-1.857-0.316
		c-0.305-0.113-0.559-0.262-0.762-0.445c-0.281-0.258-0.516-0.587-0.703-0.987s-0.281-0.938-0.281-1.614V226.591z"/>
	<path class="st3" d="M109.924,226.591h1.864l3.679,6.018v-6.018h1.746v8.965h-1.746l-3.779-6.252v6.252h-1.764V226.591z"/>
	<path class="st3" d="M122.575,226.415c0.844,0,1.523,0.141,2.039,0.422c0.676,0.367,1.191,0.895,1.547,1.582
		s0.533,1.59,0.533,2.707c0,1.516-0.357,2.662-1.072,3.439s-1.66,1.166-2.836,1.166c-1.188,0-2.147-0.396-2.88-1.187
		s-1.099-1.946-1.099-3.466c0-0.914,0.148-1.734,0.445-2.461c0.16-0.402,0.405-0.777,0.735-1.125s0.715-0.614,1.154-0.8
		S122.059,226.415,122.575,226.415z M122.75,227.95c-0.605,0-1.105,0.242-1.5,0.727s-0.592,1.285-0.592,2.402
		c0,1.098,0.2,1.887,0.601,2.367s0.913,0.721,1.538,0.721c0.594,0,1.088-0.239,1.482-0.718s0.592-1.263,0.592-2.353
		c0-1.219-0.24-2.076-0.721-2.572C123.78,228.142,123.313,227.95,122.75,227.95z"/>
	<path class="st3" d="M132.073,226.591h3.258c0.773,0,1.465,0.188,2.074,0.565s1.073,0.91,1.392,1.6s0.478,1.437,0.478,2.241
		c0,0.801-0.138,1.522-0.413,2.165s-0.628,1.147-1.058,1.515c-0.309,0.262-0.709,0.474-1.201,0.636s-1.012,0.243-1.559,0.243h-2.971
		V226.591z M133.86,228.103v5.883h1.219c0.434,0,0.819-0.116,1.157-0.349s0.599-0.538,0.782-0.917
		c0.266-0.539,0.398-1.127,0.398-1.764c0-0.867-0.252-1.56-0.756-2.077s-1.15-0.776-1.939-0.776H133.86z"/>
	<path class="st3" d="M140.95,226.591h6.012v1.559h-4.248v1.975h2.59v1.33h-2.59v2.555h4.248v1.547h-6.012V226.591z"/>
	<path class="st3" d="M152.294,226.591h1.864l3.679,6.018v-6.018h1.746v8.965h-1.746l-3.779-6.252v6.252h-1.764V226.591z"/>
	<path class="st3" d="M161.622,226.591h1.77v5.473c0,0.684,0.158,1.195,0.475,1.535s0.746,0.51,1.289,0.51
		c0.348,0,0.656-0.068,0.926-0.205s0.485-0.359,0.647-0.668s0.243-0.699,0.243-1.172v-5.473h1.775v5.73
		c0,1.094-0.299,1.936-0.896,2.525s-1.473,0.885-2.625,0.885c-0.664,0-1.283-0.105-1.857-0.316
		c-0.305-0.113-0.559-0.262-0.762-0.445c-0.281-0.258-0.516-0.587-0.703-0.987s-0.281-0.938-0.281-1.614V226.591z"/>
	<path class="st3" d="M170.804,226.591h6.012v1.559h-4.248v1.975h2.59v1.33h-2.59v2.555h4.248v1.547h-6.012V226.591z"/>
	<path class="st3" d="M179.505,233.048c0.297,0.457,0.589,0.775,0.876,0.955s0.626,0.27,1.017,0.27c0.469,0,0.834-0.116,1.096-0.349
		s0.393-0.507,0.393-0.823c0-0.277-0.104-0.521-0.311-0.732c-0.211-0.211-0.682-0.414-1.412-0.609
		c-0.996-0.262-1.709-0.582-2.139-0.961c-0.535-0.477-0.803-1.066-0.803-1.77c0-0.754,0.268-1.378,0.803-1.872
		s1.27-0.741,2.203-0.741c0.531,0,1.005,0.089,1.421,0.267s0.769,0.405,1.058,0.683c0.188,0.184,0.375,0.436,0.562,0.756
		l-1.477,0.604c-0.25-0.355-0.506-0.615-0.768-0.779s-0.553-0.246-0.873-0.246c-0.395,0-0.71,0.11-0.946,0.331
		s-0.354,0.487-0.354,0.8c0,0.25,0.098,0.465,0.293,0.645c0.191,0.18,0.672,0.365,1.441,0.557s1.353,0.414,1.749,0.668
		s0.693,0.584,0.891,0.99s0.296,0.824,0.296,1.254c0,0.453-0.127,0.908-0.381,1.365s-0.631,0.809-1.131,1.055
		s-1.074,0.369-1.723,0.369c-0.613,0-1.146-0.103-1.597-0.308s-0.833-0.481-1.146-0.829c-0.203-0.223-0.408-0.533-0.615-0.932
		L179.505,233.048z"/>
	<path class="st3" d="M185.64,226.591h6.797v1.541h-2.525v7.424h-1.758v-7.424h-2.514V226.591z"/>
	<path class="st3" d="M193.925,226.591h2.42c1.301,0,2.2,0.098,2.698,0.293s0.886,0.518,1.163,0.967s0.416,0.965,0.416,1.547
		c0,0.535-0.125,0.978-0.375,1.327s-0.684,0.649-1.301,0.899l1.612,3.932h-1.747l-1.503-3.604h-1.614v3.604h-1.77V226.591z
		 M195.694,228.155v2.414h1.412c0.516,0,0.955-0.146,1.318-0.439c0.238-0.195,0.357-0.467,0.357-0.814
		c0-0.332-0.133-0.608-0.398-0.829s-0.691-0.331-1.277-0.331H195.694z"/>
	<path class="st3" d="M205.427,226.415c0.844,0,1.523,0.141,2.039,0.422c0.676,0.367,1.191,0.895,1.547,1.582
		s0.533,1.59,0.533,2.707c0,1.516-0.357,2.662-1.072,3.439s-1.66,1.166-2.836,1.166c-1.188,0-2.147-0.396-2.88-1.187
		s-1.099-1.946-1.099-3.466c0-0.914,0.148-1.734,0.445-2.461c0.16-0.402,0.405-0.777,0.735-1.125s0.715-0.614,1.154-0.8
		S204.911,226.415,205.427,226.415z M205.603,227.95c-0.605,0-1.105,0.242-1.5,0.727s-0.592,1.285-0.592,2.402
		c0,1.098,0.2,1.887,0.601,2.367s0.913,0.721,1.538,0.721c0.594,0,1.088-0.239,1.482-0.718s0.592-1.263,0.592-2.353
		c0-1.219-0.24-2.076-0.721-2.572C206.632,228.142,206.165,227.95,205.603,227.95z"/>
	<path class="st3" d="M212.253,233.048c0.297,0.457,0.589,0.775,0.876,0.955s0.626,0.27,1.017,0.27c0.469,0,0.834-0.116,1.096-0.349
		s0.393-0.507,0.393-0.823c0-0.277-0.104-0.521-0.311-0.732c-0.211-0.211-0.682-0.414-1.412-0.609
		c-0.996-0.262-1.709-0.582-2.139-0.961c-0.535-0.477-0.803-1.066-0.803-1.77c0-0.754,0.268-1.378,0.803-1.872
		s1.27-0.741,2.203-0.741c0.531,0,1.005,0.089,1.421,0.267s0.769,0.405,1.058,0.683c0.188,0.184,0.375,0.436,0.562,0.756
		l-1.477,0.604c-0.25-0.355-0.506-0.615-0.768-0.779s-0.553-0.246-0.873-0.246c-0.395,0-0.71,0.11-0.946,0.331
		s-0.354,0.487-0.354,0.8c0,0.25,0.098,0.465,0.293,0.645c0.191,0.18,0.672,0.365,1.441,0.557s1.353,0.414,1.749,0.668
		s0.693,0.584,0.891,0.99s0.296,0.824,0.296,1.254c0,0.453-0.127,0.908-0.381,1.365s-0.631,0.809-1.131,1.055
		s-1.074,0.369-1.723,0.369c-0.613,0-1.146-0.103-1.597-0.308s-0.833-0.481-1.146-0.829c-0.203-0.223-0.408-0.533-0.615-0.932
		L212.253,233.048z"/>
	<path class="st3" d="M118.274,247.448c0.297,0.457,0.589,0.775,0.876,0.955s0.626,0.27,1.017,0.27c0.469,0,0.834-0.116,1.096-0.349
		s0.393-0.507,0.393-0.823c0-0.277-0.104-0.521-0.311-0.732c-0.211-0.211-0.682-0.414-1.412-0.609
		c-0.996-0.262-1.709-0.582-2.139-0.961c-0.535-0.477-0.803-1.066-0.803-1.77c0-0.754,0.268-1.378,0.803-1.872
		s1.27-0.741,2.203-0.741c0.531,0,1.005,0.089,1.421,0.267s0.769,0.405,1.058,0.683c0.188,0.184,0.375,0.436,0.562,0.756
		l-1.477,0.604c-0.25-0.355-0.506-0.615-0.768-0.779s-0.553-0.246-0.873-0.246c-0.395,0-0.71,0.11-0.946,0.331
		s-0.354,0.487-0.354,0.8c0,0.25,0.098,0.465,0.293,0.645c0.191,0.18,0.672,0.365,1.441,0.557s1.353,0.414,1.749,0.668
		s0.693,0.584,0.891,0.99s0.296,0.824,0.296,1.254c0,0.453-0.127,0.908-0.381,1.365s-0.631,0.809-1.131,1.055
		s-1.074,0.369-1.723,0.369c-0.613,0-1.146-0.103-1.597-0.308s-0.833-0.481-1.146-0.829c-0.203-0.223-0.408-0.533-0.615-0.932
		L118.274,247.448z"/>
	<path class="st3" d="M125.059,240.991h6.012v1.559h-4.248v1.975h2.59v1.33h-2.59v2.555h4.248v1.547h-6.012V240.991z"/>
	<path class="st3" d="M132.694,240.991h2.42c1.301,0,2.2,0.098,2.698,0.293s0.886,0.518,1.163,0.967s0.416,0.965,0.416,1.547
		c0,0.535-0.125,0.978-0.375,1.327s-0.684,0.649-1.301,0.899l1.612,3.932h-1.747l-1.503-3.604h-1.614v3.604h-1.77V240.991z
		 M134.463,242.556v2.414h1.412c0.516,0,0.955-0.146,1.318-0.439c0.238-0.195,0.357-0.467,0.357-0.814
		c0-0.332-0.133-0.608-0.398-0.829s-0.691-0.331-1.277-0.331H134.463z"/>
	<path class="st3" d="M140.155,240.991h1.717l1.869,6.164l1.893-6.164h1.691l-2.728,8.965h-1.705L140.155,240.991z"/>
	<path class="st3" d="M148.672,240.991h1.758v8.965h-1.758V240.991z"/>
	<path class="st3" d="M159.442,247.39c-0.125,0.504-0.283,0.904-0.475,1.201c-0.309,0.48-0.708,0.857-1.198,1.131
		s-1.058,0.41-1.702,0.41c-0.688,0-1.344-0.173-1.969-0.519s-1.1-0.862-1.424-1.55s-0.486-1.498-0.486-2.432
		c0-0.973,0.165-1.832,0.495-2.578s0.81-1.306,1.438-1.679s1.291-0.56,1.986-0.56c0.512,0,1.013,0.113,1.503,0.34
		s0.896,0.547,1.216,0.961c0.223,0.289,0.4,0.672,0.533,1.148l-1.641,0.469c-0.117-0.484-0.325-0.851-0.624-1.099
		s-0.657-0.372-1.075-0.372c-0.625,0-1.111,0.303-1.459,0.908s-0.521,1.396-0.521,2.373c0,0.617,0.08,1.158,0.24,1.623
		s0.381,0.808,0.662,1.028s0.586,0.331,0.914,0.331c0.492,0,0.932-0.178,1.318-0.533c0.273-0.246,0.488-0.602,0.645-1.066
		L159.442,247.39z"/>
	<path class="st3" d="M161.06,240.991h1.758v8.965h-1.758V240.991z"/>
	<path class="st3" d="M168.331,240.815c0.844,0,1.523,0.141,2.039,0.422c0.676,0.367,1.191,0.895,1.547,1.582
		s0.533,1.59,0.533,2.707c0,1.516-0.357,2.662-1.072,3.439s-1.66,1.166-2.836,1.166c-1.188,0-2.147-0.396-2.88-1.187
		s-1.099-1.946-1.099-3.466c0-0.914,0.148-1.734,0.445-2.461c0.16-0.402,0.405-0.777,0.735-1.125s0.715-0.614,1.154-0.8
		S167.815,240.815,168.331,240.815z M168.507,242.351c-0.605,0-1.105,0.242-1.5,0.727s-0.592,1.285-0.592,2.402
		c0,1.098,0.2,1.887,0.601,2.367s0.913,0.721,1.538,0.721c0.594,0,1.088-0.239,1.482-0.718s0.592-1.263,0.592-2.353
		c0-1.219-0.24-2.076-0.721-2.572C169.536,242.542,169.069,242.351,168.507,242.351z"/>
	<path class="st3" d="M175.157,247.448c0.297,0.457,0.589,0.775,0.876,0.955s0.626,0.27,1.017,0.27c0.469,0,0.834-0.116,1.096-0.349
		s0.393-0.507,0.393-0.823c0-0.277-0.104-0.521-0.311-0.732c-0.211-0.211-0.682-0.414-1.412-0.609
		c-0.996-0.262-1.709-0.582-2.139-0.961c-0.535-0.477-0.803-1.066-0.803-1.77c0-0.754,0.268-1.378,0.803-1.872
		s1.27-0.741,2.203-0.741c0.531,0,1.005,0.089,1.421,0.267s0.769,0.405,1.058,0.683c0.188,0.184,0.375,0.436,0.562,0.756
		l-1.477,0.604c-0.25-0.355-0.506-0.615-0.768-0.779s-0.553-0.246-0.873-0.246c-0.395,0-0.71,0.11-0.946,0.331
		s-0.354,0.487-0.354,0.8c0,0.25,0.098,0.465,0.293,0.645c0.191,0.18,0.672,0.365,1.441,0.557s1.353,0.414,1.749,0.668
		s0.693,0.584,0.891,0.99s0.296,0.824,0.296,1.254c0,0.453-0.127,0.908-0.381,1.365s-0.631,0.809-1.131,1.055
		s-1.074,0.369-1.723,0.369c-0.613,0-1.146-0.103-1.597-0.308s-0.833-0.481-1.146-0.829c-0.203-0.223-0.408-0.533-0.615-0.932
		L175.157,247.448z"/>
</g>
<g>
	<path class="st3" d="M90.602,288.47h3.875v1.868h-3.875V288.47z"/>
	<path class="st3" d="M103.875,282.223h2.338l3.648,11.206h-2.168l-0.851-2.629h-3.582l-0.849,2.629h-2.168L103.875,282.223z
		 M105.049,285.255l-1.285,3.911h2.55L105.049,285.255z"/>
	<path class="st3" d="M111.403,282.223h2.19v9.272h4.629v1.934h-6.819V282.223z"/>
	<path class="st3" d="M123.678,282.003c1.055,0,1.904,0.176,2.549,0.527c0.845,0.459,1.489,1.118,1.934,1.978
		s0.667,1.987,0.667,3.384c0,1.895-0.447,3.328-1.34,4.299c-0.894,0.973-2.075,1.458-3.545,1.458c-1.484,0-2.685-0.494-3.6-1.483
		c-0.916-0.988-1.374-2.433-1.374-4.332c0-1.143,0.186-2.168,0.557-3.076c0.2-0.503,0.506-0.972,0.919-1.406
		c0.412-0.435,0.894-0.768,1.442-1C122.437,282.119,123.034,282.003,123.678,282.003z M123.898,283.922
		c-0.757,0-1.382,0.303-1.875,0.908s-0.74,1.606-0.74,3.003c0,1.372,0.25,2.358,0.75,2.959s1.142,0.9,1.923,0.9
		c0.742,0,1.36-0.299,1.853-0.896c0.493-0.599,0.74-1.578,0.74-2.941c0-1.523-0.3-2.595-0.901-3.215
		C125.185,284.161,124.601,283.922,123.898,283.922z"/>
	<path class="st3" d="M133.939,282.223h2.19v7.786c0,1.235-0.408,2.185-1.223,2.849c-0.635,0.527-1.35,0.791-2.146,0.791
		c-1.152,0-2.222-0.608-3.208-1.823l1.428-1.268c0.376,0.474,0.685,0.787,0.926,0.941c0.242,0.153,0.485,0.23,0.729,0.23
		c0.361,0,0.652-0.129,0.872-0.389c0.288-0.346,0.432-0.791,0.432-1.332V282.223z"/>
	<path class="st3" d="M140.957,282.223h2.338l3.648,11.206h-2.168l-0.851-2.629h-3.582l-0.849,2.629h-2.168L140.957,282.223z
		 M142.131,285.255l-1.285,3.911h2.55L142.131,285.255z"/>
	<path class="st3" d="M148.478,282.223h3.5l1.865,6.943l1.879-6.943h3.5v11.206h-2.102v-9.976l-2.701,9.976h-1.162l-2.699-9.976
		v9.976h-2.081V282.223z"/>
	<path class="st3" d="M161.955,282.223h2.197v11.206h-2.197V282.223z"/>
	<path class="st3" d="M166.972,282.223h7.515v1.948h-5.311v2.469h3.238v1.662h-3.238v3.193h5.311v1.934h-7.515V282.223z"/>
	<path class="st3" d="M176.464,282.223h2.33l4.599,7.522v-7.522h2.183v11.206h-2.183l-4.725-7.814v7.814h-2.204V282.223z"/>
	<path class="st3" d="M187.392,282.223h8.496v1.927h-3.157v9.279h-2.197v-9.279h-3.142V282.223z"/>
	<path class="st3" d="M201.352,282.003c1.055,0,1.904,0.176,2.549,0.527c0.845,0.459,1.489,1.118,1.934,1.978
		s0.666,1.987,0.666,3.384c0,1.895-0.446,3.328-1.34,4.299c-0.894,0.973-2.075,1.458-3.545,1.458c-1.484,0-2.685-0.494-3.6-1.483
		c-0.916-0.988-1.373-2.433-1.373-4.332c0-1.143,0.186-2.168,0.557-3.076c0.199-0.503,0.506-0.972,0.919-1.406
		c0.412-0.435,0.894-0.768,1.442-1C200.11,282.119,200.707,282.003,201.352,282.003z M201.571,283.922
		c-0.757,0-1.382,0.303-1.875,0.908s-0.739,1.606-0.739,3.003c0,1.372,0.25,2.358,0.75,2.959s1.142,0.9,1.923,0.9
		c0.742,0,1.36-0.299,1.853-0.896c0.494-0.599,0.74-1.578,0.74-2.941c0-1.523-0.301-2.595-0.9-3.215
		C202.857,284.161,202.274,283.922,201.571,283.922z"/>
</g>
<g>
	<path class="st3" d="M105.621,320.47h3.875v1.868h-3.875V320.47z"/>
	<path class="st3" d="M124.766,322.221c-0.156,0.63-0.354,1.131-0.593,1.501c-0.386,0.602-0.885,1.072-1.498,1.414
		s-1.322,0.513-2.127,0.513c-0.859,0-1.68-0.216-2.461-0.648c-0.781-0.432-1.375-1.077-1.78-1.937s-0.608-1.873-0.608-3.04
		c0-1.216,0.206-2.29,0.619-3.223s1.012-1.632,1.798-2.099c0.786-0.466,1.614-0.699,2.483-0.699c0.64,0,1.266,0.142,1.879,0.425
		c0.612,0.283,1.119,0.684,1.52,1.201c0.278,0.361,0.5,0.84,0.667,1.436l-2.051,0.586c-0.146-0.605-0.407-1.063-0.78-1.373
		c-0.374-0.311-0.822-0.466-1.344-0.466c-0.781,0-1.389,0.379-1.824,1.136s-0.652,1.746-0.652,2.966c0,0.772,0.1,1.448,0.3,2.029
		s0.476,1.01,0.828,1.285c0.352,0.276,0.732,0.414,1.143,0.414c0.615,0,1.165-0.222,1.648-0.666c0.342-0.309,0.61-0.752,0.806-1.334
		L124.766,322.221z"/>
	<path class="st3" d="M130.713,314.003c1.055,0,1.904,0.176,2.549,0.527c0.845,0.459,1.489,1.118,1.934,1.978
		s0.667,1.987,0.667,3.384c0,1.895-0.447,3.328-1.34,4.299c-0.894,0.973-2.075,1.458-3.545,1.458c-1.484,0-2.685-0.494-3.6-1.483
		c-0.916-0.988-1.374-2.433-1.374-4.332c0-1.143,0.186-2.168,0.557-3.076c0.2-0.503,0.506-0.972,0.919-1.406
		c0.412-0.435,0.894-0.768,1.442-1C129.472,314.119,130.069,314.003,130.713,314.003z M130.933,315.922
		c-0.757,0-1.382,0.303-1.875,0.908s-0.74,1.606-0.74,3.003c0,1.372,0.25,2.358,0.75,2.959s1.142,0.9,1.923,0.9
		c0.742,0,1.36-0.299,1.853-0.896c0.493-0.599,0.74-1.578,0.74-2.941c0-1.523-0.3-2.595-0.901-3.215
		C132.22,316.161,131.636,315.922,130.933,315.922z"/>
	<path class="st3" d="M137.833,314.223h3.501l1.864,6.943l1.879-6.943h3.5v11.206h-2.102v-9.976l-2.701,9.976h-1.162l-2.7-9.976
		v9.976h-2.08V314.223z"/>
	<path class="st3" d="M151.162,314.223h7.516v1.948h-5.311v2.469h3.237v1.662h-3.237v3.193h5.311v1.934h-7.516V314.223z"/>
	<path class="st3" d="M160.691,314.223h4.072c0.967,0,1.831,0.235,2.593,0.707c0.762,0.471,1.341,1.138,1.739,1.999
		c0.398,0.862,0.598,1.796,0.598,2.802c0,1.001-0.172,1.903-0.518,2.706c-0.344,0.804-0.784,1.435-1.321,1.894
		c-0.386,0.327-0.886,0.592-1.501,0.795c-0.615,0.202-1.266,0.304-1.949,0.304h-3.713V314.223z M162.926,316.112v7.354h1.523
		c0.541,0,1.023-0.146,1.445-0.436c0.423-0.291,0.749-0.673,0.979-1.146c0.332-0.674,0.498-1.408,0.498-2.205
		c0-1.084-0.314-1.949-0.945-2.596c-0.629-0.647-1.438-0.971-2.424-0.971H162.926z"/>
	<path class="st3" d="M175.859,314.003c1.055,0,1.904,0.176,2.549,0.527c0.846,0.459,1.49,1.118,1.934,1.978
		c0.445,0.859,0.667,1.987,0.667,3.384c0,1.895-0.446,3.328-1.341,4.299c-0.893,0.973-2.074,1.458-3.545,1.458
		c-1.484,0-2.684-0.494-3.6-1.483c-0.916-0.988-1.373-2.433-1.373-4.332c0-1.143,0.186-2.168,0.557-3.076
		c0.2-0.503,0.506-0.972,0.92-1.406c0.412-0.435,0.893-0.768,1.441-1C174.619,314.119,175.215,314.003,175.859,314.003z
		 M176.08,315.922c-0.758,0-1.383,0.303-1.875,0.908c-0.494,0.605-0.74,1.606-0.74,3.003c0,1.372,0.25,2.358,0.75,2.959
		c0.501,0.601,1.143,0.9,1.924,0.9c0.742,0,1.359-0.299,1.853-0.896c0.493-0.599,0.739-1.578,0.739-2.941
		c0-1.523-0.3-2.595-0.9-3.215C177.366,316.161,176.783,315.922,176.08,315.922z"/>
	<path class="st3" d="M183.06,314.223h3.024c1.627,0,2.75,0.122,3.373,0.366s1.107,0.647,1.454,1.209s0.521,1.206,0.521,1.934
		c0,0.669-0.156,1.222-0.469,1.658c-0.312,0.438-0.855,0.812-1.627,1.125l2.016,4.914h-2.184l-1.879-4.504h-2.018v4.504h-2.212
		V314.223z M185.271,316.179v3.018h1.766c0.645,0,1.193-0.184,1.647-0.55c0.298-0.244,0.446-0.583,0.446-1.019
		c0-0.414-0.166-0.76-0.498-1.036c-0.332-0.275-0.863-0.413-1.596-0.413H185.271z"/>
</g>
<g>
	<rect x="41" y="354" class="st3" width="215" height="42"/>
</g>
<g>
	<g>
		<polygon class="st4" points="1,58.5 0,58.5 0,0 50.25,0 50.25,1 1,1 		"/>
	</g>
	<g>
		<polygon class="st4" points="297,58.5 296,58.5 296,1 246.75,1 246.75,0 297,0 		"/>
	</g>
</g>
<g>
	<g>
		<polygon class="st4" points="297,422 246.75,422 246.75,421 296,421 296,363.5 297,363.5 		"/>
	</g>
	<g>
		<polygon class="st4" points="50.25,422 0,422 0,363.5 1,363.5 1,421 50.25,421 		"/>
	</g>
</g>
</svg>